<svg width="287" height="233" viewBox="0 0 287 233" fill="none" xmlns="http://www.w3.org/2000/svg">
<path d="M77.3695 43.627C73.8449 45.4624 70.3145 47.7733 68.5203 51.3194C67.2015 53.9289 66.9609 56.9212 66.7435 59.8323L64.1348 94.5857C63.5551 102.33 62.9203 110.289 59.5407 117.283C53.7175 129.33 41.0394 136.205 31.5207 145.605C15.9237 161.01 9.22814 186.978 20.9411 205.512C26.1083 213.613 34.0908 219.514 43.3495 222.077C48.7814 223.555 54.4567 223.816 60.0798 224.069C107.181 226.112 154.314 226.931 201.478 226.527C207.078 226.478 212.832 226.382 218 224.254C225.139 221.317 230.269 214.851 233.803 207.985C237.336 201.119 239.6 193.664 242.942 186.706C249.782 172.498 260.913 160.917 270.611 148.499C275.959 141.656 280.964 134.404 283.967 126.257C288.741 113.308 287.906 98.0767 280.446 86.4642C277.222 81.4452 272.834 77.0988 270.64 71.5521C267.576 63.7959 269.286 55.109 270.017 46.802C270.747 38.4949 269.947 29.0107 263.556 23.6553C260.028 20.7007 255.356 19.5351 250.802 18.8682C229.003 15.6788 207.107 21.991 185.49 26.2474C166.415 30.0168 147.076 32.174 127.725 33.8934C110.549 35.4244 93.0447 35.465 77.3695 43.627Z" fill="#2ABD77"/>
<rect x="113" y="88.3252" width="134" height="108" rx="20" transform="rotate(-41.2346 113 88.3252)" fill="#2EEB7A"/>
<path d="M113.249 180.842L157.16 181.835L160.77 216.197H109.46L113.249 180.842Z" fill="#F2F2F2"/>
<path d="M113.25 180.842L112.103 191.541H158.181L157.161 181.835L113.25 180.842H113.25Z" fill="#CCCCCC"/>
<path d="M225.38 189.078H44.8504C39.8559 189.078 35.8071 185.029 35.8071 180.035V67.7117C35.8071 62.7173 39.8559 58.6685 44.8504 58.6685H225.38C230.374 58.6685 234.423 62.7173 234.423 67.7117V180.035C234.423 185.029 230.374 189.078 225.38 189.078Z" fill="white"/>
<path fill-rule="evenodd" clip-rule="evenodd" d="M35.7783 55.9125V170.892H234.452V55.9125H35.7783ZM40.4615 61.8544H228.906L203.633 156.557L62.4142 147.112L40.4615 61.8544Z" fill="#333333"/>
<path d="M224.163 47.4927H46.0645C40.3868 47.4927 35.7842 52.0953 35.7842 57.773V91.9587C35.7842 97.6364 40.3868 102.239 46.0645 102.239H224.163C229.841 102.239 234.444 97.6364 234.444 91.9587V57.773C234.444 52.0953 229.841 47.4927 224.163 47.4927Z" fill="#333333"/>
<path d="M226.418 56.228H43.814V161.442H226.418V56.228Z" fill="#ECECEC"/>
<path d="M174.072 210.992H96.1572C95.3261 210.992 94.6523 211.666 94.6523 212.497V214.693C94.6523 215.524 95.3261 216.198 96.1572 216.198H174.072C174.903 216.198 175.577 215.524 175.577 214.693V212.497C175.577 211.666 174.903 210.992 174.072 210.992Z" fill="white"/>
<path d="M135.116 185.322C137.936 185.322 140.222 183.036 140.222 180.216C140.222 177.396 137.936 175.11 135.116 175.11C132.297 175.11 130.011 177.396 130.011 180.216C130.011 183.036 132.297 185.322 135.116 185.322Z" fill="#333333"/>
<path d="M68.6933 56.2201H43.8096V161.445H68.6933V56.2201Z" fill="#2EEB7A"/>
<path d="M226.431 56.2201H43.8096V60.9195H226.431V56.2201Z" fill="#0097A7"/>
<path d="M222.923 71.4386H73.9546V118.719H222.923V71.4386Z" fill="#E6E6E6"/>
<path d="M222.923 63.9901H73.9546V68.8486H222.923V63.9901Z" fill="#2EEB7A"/>
<path d="M221.265 73.7157H75.4023V107.545H221.265V73.7157Z" fill="white"/>
<path d="M109.935 73.7157H92.3711V107.545H109.935V73.7157Z" fill="#F2F2F2"/>
<path d="M146.148 73.7157H128.584V107.545H146.148V73.7157Z" fill="#F2F2F2"/>
<path d="M182.777 73.7157H165.213V107.545H182.777V73.7157Z" fill="#F2F2F2"/>
<path d="M220.024 73.7157H202.46V107.545H220.024V73.7157Z" fill="#F2F2F2"/>
<path d="M127.027 109.515H124.983V116.65H127.027V109.515Z" fill="#CCCCCC"/>
<path d="M176.568 109.515H174.524V116.65H176.568V109.515Z" fill="#CCCCCC"/>
<path d="M221.265 79.0956H75.4023V80.0221H221.265V79.0956Z" fill="#CFD8DC"/>
<path d="M221.265 86.3383H75.4023V87.2649H221.265V86.3383Z" fill="#CFD8DC"/>
<path d="M221.265 93.5811H75.4023V94.5076H221.265V93.5811Z" fill="#CFD8DC"/>
<path d="M221.265 100.824H75.4023V101.75H221.265V100.824Z" fill="#CFD8DC"/>
<path d="M84.6136 93.7881H77V107.283H84.6136V93.7881Z" fill="#2EEB7A"/>
<path d="M93.6556 89.6945H86.042V107.282H93.6556V89.6945Z" fill="#2EEB7A"/>
<path d="M102.7 91.3053H95.0869V107.283H102.7V91.3053Z" fill="#2EEB7A"/>
<path d="M111.742 90.865H104.128V107.282H111.742V90.865Z" fill="#2EEB7A"/>
<path d="M120.351 88.9341H112.737V107.546H120.351V88.9341Z" fill="#2EEB7A"/>
<path d="M129.825 88.0867H122.211V107.283H129.825V88.0867Z" fill="#2EEB7A"/>
<path d="M138.87 91.3198H131.257V107.281H138.87V91.3198Z" fill="#2EEB7A"/>
<path d="M147.911 86.4904H140.298V107.282H147.911V86.4904Z" fill="#2EEB7A"/>
<path d="M156.954 84.8941H149.34V107.28H156.954V84.8941Z" fill="#2EEB7A"/>
<path d="M165.999 82.1447H158.385V107.282H165.999V82.1447Z" fill="#2EEB7A"/>
<path d="M175.041 83.3152H167.427V107.282H175.041V83.3152Z" fill="#2EEB7A"/>
<path d="M184.082 79.8039H176.468V107.282H184.082V79.8039Z" fill="#2EEB7A"/>
<path d="M193.127 81.2669H185.514V107.282H193.127V81.2669Z" fill="#2EEB7A"/>
<path d="M202.169 79.6561H194.556V107.281H202.169V79.6561Z" fill="#2EEB7A"/>
<path d="M211.21 78.0482H203.597V107.283H211.21V78.0482Z" fill="#2EEB7A"/>
<path d="M220.256 76H212.643V107.283H220.256V76Z" fill="#2EEB7A"/>
<path d="M96.0902 109.388H86.0183C85.8566 109.388 85.7256 109.519 85.7256 109.68V110.75C85.7256 110.912 85.8566 111.043 86.0183 111.043H96.0902C96.2518 111.043 96.3828 110.912 96.3828 110.75V109.68C96.3828 109.519 96.2518 109.388 96.0902 109.388Z" fill="#7CB342"/>
<path d="M107.67 112.256H87.3834C87.1568 112.256 86.9731 112.439 86.9731 112.666V115.21C86.9731 115.436 87.1568 115.62 87.3834 115.62H107.67C107.897 115.62 108.08 115.436 108.08 115.21V112.666C108.08 112.439 107.897 112.256 107.67 112.256Z" fill="#26A69A"/>
<path d="M149.477 109.388H139.405C139.244 109.388 139.113 109.519 139.113 109.68V110.75C139.113 110.912 139.244 111.043 139.405 111.043H149.477C149.639 111.043 149.77 110.912 149.77 110.75V109.68C149.77 109.519 149.639 109.388 149.477 109.388Z" fill="#7CB342"/>
<path d="M161.061 112.256H140.774C140.547 112.256 140.364 112.439 140.364 112.666V115.21C140.364 115.436 140.547 115.62 140.774 115.62H161.061C161.287 115.62 161.471 115.436 161.471 115.21V112.666C161.471 112.439 161.287 112.256 161.061 112.256Z" fill="#26A69A"/>
<path d="M188.797 109.388H178.725C178.563 109.388 178.432 109.519 178.432 109.68V110.75C178.432 110.912 178.563 111.043 178.725 111.043H188.797C188.958 111.043 189.089 110.912 189.089 110.75V109.68C189.089 109.519 188.958 109.388 188.797 109.388Z" fill="#7CB342"/>
<path d="M204.619 112.256H182.159C181.933 112.256 181.749 112.439 181.749 112.666V115.21C181.749 115.436 181.933 115.62 182.159 115.62H204.619C204.846 115.62 205.029 115.436 205.029 115.21V112.666C205.029 112.439 204.846 112.256 204.619 112.256Z" fill="#26A69A"/>
<path d="M217.554 112.256H210.511C210.284 112.256 210.101 112.439 210.101 112.666V115.21C210.101 115.436 210.284 115.62 210.511 115.62H217.554C217.78 115.62 217.964 115.436 217.964 115.21V112.666C217.964 112.439 217.78 112.256 217.554 112.256Z" fill="#26A69A"/>
<path d="M150.638 121.518H73.9546V139.972H150.638V121.518Z" fill="#B2EBF2"/>
<path d="M150.638 121.518H73.9546V127.015H150.638V121.518Z" fill="#00BCD4"/>
<path d="M150.638 143.174H73.9546V161.335H150.638V143.174Z" fill="#B2EBF2"/>
<path d="M150.638 143.174H73.9546V148.671H150.638V143.174Z" fill="#00BCD4"/>
<path d="M67.523 62.1302H44.4683V66.9249H67.523V62.1302Z" fill="#2ABD77"/>
<path d="M67.523 68.1301H44.4683V72.9248H67.523V68.1301Z" fill="#2ABD77"/>
<path d="M67.523 74.1329H44.4683V78.9276H67.523V74.1329Z" fill="#2ABD77"/>
<path d="M67.523 79.927H44.4683V84.7217H67.523V79.927Z" fill="#2ABD77"/>
<path d="M67.523 85.617H44.4683V90.4116H67.523V85.617Z" fill="#00ACC1"/>
<path d="M67.523 91.4111H44.4683V96.2058H67.523V91.4111Z" fill="#2ABD77"/>
<path d="M67.523 97.101H44.4683V101.896H67.523V97.101Z" fill="#00ACC1"/>
<path d="M67.523 102.895H44.4683V107.69H67.523V102.895Z" fill="#2ABD77"/>
<path d="M48.8992 62.8545H45.2964V65.9935H48.8992V62.8545Z" fill="#0097A7"/>
<path d="M48.8992 68.8544H45.2964V71.9934H48.8992V68.8544Z" fill="#0097A7"/>
<path d="M48.8992 74.9585H45.2964V78.0975H48.8992V74.9585Z" fill="#0097A7"/>
<path d="M48.8992 80.7527H45.2964V83.8917H48.8992V80.7527Z" fill="#0097A7"/>
<path d="M48.8992 86.4455H45.2964V89.5845H48.8992V86.4455Z" fill="#0097A7"/>
<path d="M48.8992 92.0311H45.2964V95.1701H48.8992V92.0311Z" fill="#0097A7"/>
<path d="M48.8992 97.7239H45.2964V100.863H48.8992V97.7239Z" fill="#0097A7"/>
<path d="M48.8992 103.709H45.2964V106.848H48.8992V103.709Z" fill="#0097A7"/>
<path d="M220.246 68.3057C221.296 68.3057 222.148 67.454 222.148 66.4034C222.148 65.3529 221.296 64.5012 220.246 64.5012C219.195 64.5012 218.343 65.3529 218.343 66.4034C218.343 67.454 219.195 68.3057 220.246 68.3057Z" fill="#00838F"/>
<path fill-rule="evenodd" clip-rule="evenodd" d="M220.326 65.1722L219.022 67.1314H221.637L220.326 65.1722Z" fill="#00BCD4"/>
<path d="M146.882 126.239C147.933 126.239 148.784 125.387 148.784 124.337C148.784 123.286 147.933 122.434 146.882 122.434C145.832 122.434 144.98 123.286 144.98 124.337C144.98 125.387 145.832 126.239 146.882 126.239Z" fill="#00838F"/>
<path fill-rule="evenodd" clip-rule="evenodd" d="M146.961 123.102L145.657 125.062H148.271L146.961 123.102Z" fill="#00BCD4"/>
<path d="M146.882 147.758C147.933 147.758 148.784 146.907 148.784 145.856C148.784 144.806 147.933 143.954 146.882 143.954C145.832 143.954 144.98 144.806 144.98 145.856C144.98 146.907 145.832 147.758 146.882 147.758Z" fill="#00838F"/>
<path fill-rule="evenodd" clip-rule="evenodd" d="M146.961 144.625L145.657 146.584H148.271L146.961 144.625Z" fill="#00BCD4"/>
<path d="M101.808 122.833H88.0762C87.5905 122.833 87.1968 123.227 87.1968 123.712V126.134C87.1968 126.62 87.5905 127.013 88.0762 127.013H101.808C102.294 127.013 102.688 126.62 102.688 126.134V123.712C102.688 123.227 102.294 122.833 101.808 122.833Z" fill="#00ACC1"/>
<path d="M89.9096 122.833H76.1778C75.6921 122.833 75.2983 123.227 75.2983 123.712V126.134C75.2983 126.62 75.6921 127.013 76.1778 127.013H89.9096C90.3953 127.013 90.7891 126.62 90.7891 126.134V123.712C90.7891 123.227 90.3953 122.833 89.9096 122.833Z" fill="#0097A7"/>
<path d="M101.808 144.46H88.0762C87.5905 144.46 87.1968 144.854 87.1968 145.339V147.761C87.1968 148.247 87.5905 148.64 88.0762 148.64H101.808C102.294 148.64 102.688 148.247 102.688 147.761V145.339C102.688 144.854 102.294 144.46 101.808 144.46Z" fill="#00ACC1"/>
<path d="M89.9096 144.46H76.1778C75.6921 144.46 75.2983 144.854 75.2983 145.339V147.761C75.2983 148.247 75.6921 148.64 76.1778 148.64H89.9096C90.3953 148.64 90.7891 148.247 90.7891 147.761V145.339C90.7891 144.854 90.3953 144.46 89.9096 144.46Z" fill="#0097A7"/>
<path d="M47.6576 56.956H46.538C45.8523 56.956 45.2964 57.5119 45.2964 58.1976V58.8534C45.2964 59.5391 45.8523 60.095 46.538 60.095H47.6576C48.3433 60.095 48.8992 59.5391 48.8992 58.8534V58.1976C48.8992 57.5119 48.3433 56.956 47.6576 56.956Z" fill="white"/>
<path d="M80.1459 57.576H49.8481V59.6286H80.1459V57.576Z" fill="white"/>
<path d="M86.8724 56.956H85.7528C85.0671 56.956 84.5112 57.5119 84.5112 58.1976V58.8534C84.5112 59.5391 85.0671 60.095 85.7528 60.095H86.8724C87.5582 60.095 88.1141 59.5391 88.1141 58.8534V58.1976C88.1141 57.5119 87.5582 56.956 86.8724 56.956Z" fill="white"/>
<path fill-rule="evenodd" clip-rule="evenodd" d="M87.8918 59.2795C87.7484 59.9236 88.1708 60.1814 88.6549 60.4952C87.7178 60.4832 87.0661 60.3 86.8184 59.8744L87.8918 59.2795Z" fill="white"/>
<path d="M100.838 57.576H89.6826V59.6286H100.838V57.576Z" fill="#00838F"/>
<path d="M127.121 57.576H111.205V59.6286H127.121V57.576Z" fill="#00838F"/>
<path d="M222.804 121.518H153.569V158.995H222.804V121.518Z" fill="#2ABD77"/>
<path d="M222.804 121.518H153.569V127.015H222.804V121.518Z" fill="#00BCD4"/>
<path d="M219.753 126.239C220.804 126.239 221.656 125.387 221.656 124.337C221.656 123.286 220.804 122.434 219.753 122.434C218.703 122.434 217.851 123.286 217.851 124.337C217.851 125.387 218.703 126.239 219.753 126.239Z" fill="#00838F"/>
<path fill-rule="evenodd" clip-rule="evenodd" d="M219.832 123.102L218.528 125.062H221.142L219.832 123.102Z" fill="#00BCD4"/>
<path d="M195.309 122.833H181.577C181.092 122.833 180.698 123.227 180.698 123.712V126.134C180.698 126.62 181.092 127.013 181.577 127.013H195.309C195.795 127.013 196.189 126.62 196.189 126.134V123.712C196.189 123.227 195.795 122.833 195.309 122.833Z" fill="#4DD0E1"/>
<path d="M182.872 122.833H169.14C168.654 122.833 168.26 123.227 168.26 123.712V126.134C168.26 126.62 168.654 127.013 169.14 127.013H182.872C183.357 127.013 183.751 126.62 183.751 126.134V123.712C183.751 123.227 183.357 122.833 182.872 122.833Z" fill="#00ACC1"/>
<path d="M170.973 122.833H157.241C156.756 122.833 156.362 123.227 156.362 123.712V126.134C156.362 126.62 156.756 127.013 157.241 127.013H170.973C171.459 127.013 171.853 126.62 171.853 126.134V123.712C171.853 123.227 171.459 122.833 170.973 122.833Z" fill="#0097A7"/>
<path d="M67.523 108.66H44.4683V113.455H67.523V108.66Z" fill="#00ACC1"/>
<path d="M67.523 114.455H44.4683V119.249H67.523V114.455Z" fill="#2ABD77"/>
<path d="M48.8992 109.283H45.2964V112.422H48.8992V109.283Z" fill="#0097A7"/>
<path d="M48.8992 115.269H45.2964V118.408H48.8992V115.269Z" fill="#0097A7"/>
<path d="M117.61 128.633H76.3928C76.2311 128.633 76.1001 128.764 76.1001 128.926V129.996C76.1001 130.157 76.2311 130.288 76.3928 130.288H117.61C117.771 130.288 117.902 130.157 117.902 129.996V128.926C117.902 128.764 117.771 128.633 117.61 128.633Z" fill="#4CAF50"/>
<path d="M97.1216 132.46H76.3928C76.2311 132.46 76.1001 132.591 76.1001 132.753V133.823C76.1001 133.984 76.2311 134.116 76.3928 134.116H97.1216C97.2833 134.116 97.4143 133.984 97.4143 133.823V132.753C97.4143 132.591 97.2833 132.46 97.1216 132.46Z" fill="#4CAF50"/>
<path d="M110.158 136.186H76.3928C76.2311 136.186 76.1001 136.317 76.1001 136.478V137.549C76.1001 137.71 76.2311 137.841 76.3928 137.841H110.158C110.32 137.841 110.451 137.71 110.451 137.549V136.478C110.451 136.317 110.32 136.186 110.158 136.186Z" fill="#4CAF50"/>
<path d="M148.547 132.46H137.647C137.486 132.46 137.354 132.591 137.354 132.753V133.823C137.354 133.984 137.486 134.116 137.647 134.116H148.547C148.708 134.116 148.839 133.984 148.839 133.823V132.753C148.839 132.591 148.708 132.46 148.547 132.46Z" fill="#4CAF50"/>
<path d="M148.651 136.186H137.751C137.59 136.186 137.458 136.317 137.458 136.478V137.549C137.458 137.71 137.59 137.841 137.751 137.841H148.651C148.812 137.841 148.943 137.71 148.943 137.549V136.478C148.943 136.317 148.812 136.186 148.651 136.186Z" fill="#4CAF50"/>
<path d="M148.339 128.633H131.852C131.69 128.633 131.559 128.764 131.559 128.926V129.996C131.559 130.157 131.69 130.288 131.852 130.288H148.339C148.5 130.288 148.631 130.157 148.631 129.996V128.926C148.631 128.764 148.5 128.633 148.339 128.633Z" fill="#4CAF50"/>
<path d="M89.4652 150.361H76.3928C76.2311 150.361 76.1001 150.492 76.1001 150.654V151.724C76.1001 151.886 76.2311 152.017 76.3928 152.017H89.4652C89.6268 152.017 89.7579 151.886 89.7579 151.724V150.654C89.7579 150.492 89.6268 150.361 89.4652 150.361Z" fill="#AB47BC"/>
<path d="M101.571 154.188H76.3928C76.2311 154.188 76.1001 154.319 76.1001 154.481V155.551C76.1001 155.713 76.2311 155.844 76.3928 155.844H101.571C101.733 155.844 101.864 155.713 101.864 155.551V154.481C101.864 154.319 101.733 154.188 101.571 154.188Z" fill="#AB47BC"/>
<path d="M110.158 157.914H76.3928C76.2311 157.914 76.1001 158.045 76.1001 158.207V159.277C76.1001 159.438 76.2311 159.569 76.3928 159.569H110.158C110.32 159.569 110.451 159.438 110.451 159.277V158.207C110.451 158.045 110.32 157.914 110.158 157.914Z" fill="#AB47BC"/>
<path d="M148.546 154.188H141.963C141.801 154.188 141.67 154.319 141.67 154.481V155.551C141.67 155.713 141.801 155.844 141.963 155.844H148.546C148.708 155.844 148.839 155.713 148.839 155.551V154.481C148.839 154.319 148.708 154.188 148.546 154.188Z" fill="#AB47BC"/>
<path d="M148.651 157.914H142.068C141.906 157.914 141.775 158.045 141.775 158.207V159.277C141.775 159.438 141.906 159.569 142.068 159.569H148.651C148.812 159.569 148.943 159.438 148.943 159.277V158.207C148.943 158.045 148.812 157.914 148.651 157.914Z" fill="#AB47BC"/>
<path d="M148.34 150.361H141.804C141.642 150.361 141.511 150.492 141.511 150.654V151.724C141.511 151.886 141.642 152.017 141.804 152.017H148.34C148.502 152.017 148.633 151.886 148.633 151.724V150.654C148.633 150.492 148.502 150.361 148.34 150.361Z" fill="#AB47BC"/>
<path d="M217.111 129.073H175.894C175.733 129.073 175.602 129.204 175.602 129.366V130.436C175.602 130.598 175.733 130.729 175.894 130.729H217.111C217.273 130.729 217.404 130.598 217.404 130.436V129.366C217.404 129.204 217.273 129.073 217.111 129.073Z" fill="#F44336"/>
<path d="M212.247 132.9H175.894C175.733 132.9 175.602 133.031 175.602 133.193V134.263C175.602 134.425 175.733 134.556 175.894 134.556H212.247C212.408 134.556 212.54 134.425 212.54 134.263V133.193C212.54 133.031 212.408 132.9 212.247 132.9Z" fill="#F44336"/>
<path d="M210.28 136.626H175.894C175.733 136.626 175.602 136.757 175.602 136.919V137.989C175.602 138.151 175.733 138.282 175.894 138.282H210.28C210.441 138.282 210.572 138.151 210.572 137.989V136.919C210.572 136.757 210.441 136.626 210.28 136.626Z" fill="#F44336"/>
<path d="M192.898 140.143H175.894C175.733 140.143 175.602 140.274 175.602 140.436V141.506C175.602 141.668 175.733 141.799 175.894 141.799H192.898C193.06 141.799 193.191 141.668 193.191 141.506V140.436C193.191 140.274 193.06 140.143 192.898 140.143Z" fill="#F44336"/>
<path d="M185.449 143.97H175.894C175.733 143.97 175.602 144.101 175.602 144.263V145.333C175.602 145.495 175.733 145.626 175.894 145.626H185.449C185.61 145.626 185.741 145.495 185.741 145.333V144.263C185.741 144.101 185.61 143.97 185.449 143.97Z" fill="#F44336"/>
<path d="M184.104 147.696H175.894C175.733 147.696 175.602 147.827 175.602 147.989V149.059C175.602 149.22 175.733 149.351 175.894 149.351H184.104C184.265 149.351 184.396 149.22 184.396 149.059V147.989C184.396 147.827 184.265 147.696 184.104 147.696Z" fill="#F44336"/>
<path d="M179.034 151.422H175.894C175.733 151.422 175.602 151.553 175.602 151.714V152.784C175.602 152.946 175.733 153.077 175.894 153.077H179.034C179.195 153.077 179.326 152.946 179.326 152.784V151.714C179.326 151.553 179.195 151.422 179.034 151.422Z" fill="#F44336"/>
<path d="M177.068 155.249H175.894C175.733 155.249 175.602 155.38 175.602 155.541V156.611C175.602 156.773 175.733 156.904 175.894 156.904H177.068C177.229 156.904 177.361 156.773 177.361 156.611V155.541C177.361 155.38 177.229 155.249 177.068 155.249Z" fill="#F44336"/>
<path d="M170.476 129.073H157.063C156.901 129.073 156.77 129.204 156.77 129.366V130.436C156.77 130.598 156.901 130.729 157.063 130.729H170.476C170.638 130.729 170.769 130.598 170.769 130.436V129.366C170.769 129.204 170.638 129.073 170.476 129.073Z" fill="#4DB6AC"/>
<path d="M170.735 132.9H157.063C156.901 132.9 156.77 133.031 156.77 133.193V134.263C156.77 134.425 156.901 134.556 157.063 134.556H170.735C170.896 134.556 171.027 134.425 171.027 134.263V133.193C171.027 133.031 170.896 132.9 170.735 132.9Z" fill="#4DB6AC"/>
<path d="M170.653 136.626H157.063C156.901 136.626 156.77 136.757 156.77 136.919V137.989C156.77 138.151 156.901 138.282 157.063 138.282H170.653C170.814 138.282 170.945 138.151 170.945 137.989V136.919C170.945 136.757 170.814 136.626 170.653 136.626Z" fill="#4DB6AC"/>
<path d="M168.893 140.143H157.063C156.901 140.143 156.77 140.274 156.77 140.436V141.506C156.77 141.668 156.901 141.799 157.063 141.799H168.893C169.055 141.799 169.186 141.668 169.186 141.506V140.436C169.186 140.274 169.055 140.143 168.893 140.143Z" fill="#4DB6AC"/>
<path d="M169.721 143.97H157.063C156.901 143.97 156.77 144.101 156.77 144.263V145.333C156.77 145.495 156.901 145.626 157.063 145.626H169.721C169.883 145.626 170.014 145.495 170.014 145.333V144.263C170.014 144.101 169.883 143.97 169.721 143.97Z" fill="#4DB6AC"/>
<path d="M168.273 147.696H157.063C156.901 147.696 156.77 147.827 156.77 147.989V149.059C156.77 149.22 156.901 149.351 157.063 149.351H168.273C168.434 149.351 168.565 149.22 168.565 149.059V147.989C168.565 147.827 168.434 147.696 168.273 147.696Z" fill="#4DB6AC"/>
<path d="M168.583 151.422H157.063C156.901 151.422 156.77 151.553 156.77 151.714V152.784C156.77 152.946 156.901 153.077 157.063 153.077H168.583C168.745 153.077 168.876 152.946 168.876 152.784V151.714C168.876 151.553 168.745 151.422 168.583 151.422Z" fill="#4DB6AC"/>
<path d="M169.721 155.249H157.063C156.901 155.249 156.77 155.38 156.77 155.541V156.611C156.77 156.773 156.901 156.904 157.063 156.904H169.721C169.883 156.904 170.014 156.773 170.014 156.611V155.541C170.014 155.38 169.883 155.249 169.721 155.249Z" fill="#4DB6AC"/>
<path d="M108.416 56.7966H107.149V60.2888H108.416V56.7966Z" fill="white"/>
<path d="M109.53 59.1766V57.9092H106.038V59.1766H109.53Z" fill="white"/>
</svg>
