<svg width="272" height="209" viewBox="0 0 272 209" fill="none" xmlns="http://www.w3.org/2000/svg">
<path d="M62.3695 25.627C58.8449 27.4624 55.3145 29.7733 53.5203 33.3194C52.2015 35.9289 51.9609 38.9212 51.7435 41.8323L49.1348 76.5857C48.5551 84.3303 47.9203 92.2894 44.5407 99.283C38.7175 111.33 26.0394 118.205 16.5207 127.605C0.923725 143.01 -5.77186 168.978 5.94107 187.512C11.1083 195.613 19.0908 201.514 28.3495 204.077C33.7814 205.555 39.4567 205.816 45.0798 206.069C92.1808 208.112 139.314 208.931 186.478 208.527C192.078 208.478 197.832 208.382 203 206.254C210.139 203.317 215.269 196.851 218.803 189.985C222.336 183.119 224.6 175.664 227.942 168.706C234.782 154.498 245.913 142.917 255.611 130.499C260.959 123.656 265.964 116.404 268.967 108.257C273.741 95.3078 272.906 80.0767 265.446 68.4642C262.222 63.4452 257.834 59.0988 255.64 53.5521C252.576 45.7959 254.286 37.109 255.017 28.802C255.747 20.4949 254.947 11.0107 248.556 5.6553C245.028 2.70071 240.356 1.53511 235.802 0.86823C214.003 -2.32122 192.107 3.99099 170.49 8.24745C151.415 12.0168 132.076 14.174 112.725 15.8934C95.5488 17.4244 78.0447 17.465 62.3695 25.627Z" fill="#2ABD77"/>
<g clip-path="url(#clip0)">
<path d="M199.906 67.0579C203.768 67.0579 206.9 63.9388 206.9 60.0913C206.9 56.2437 203.768 53.1247 199.906 53.1247C196.043 53.1247 192.911 56.2437 192.911 60.0913C192.911 63.9388 196.043 67.0579 199.906 67.0579Z" fill="#F2F2F2"/>
<path d="M218.286 103.74L115.666 41.2038C110.95 38.3298 104.783 39.8149 101.892 44.5209L73.2339 91.1766C70.3433 95.8825 71.8231 102.027 76.5393 104.901L179.159 167.437C183.876 170.311 190.042 168.826 192.933 164.12L221.591 117.464C224.482 112.758 223.002 106.613 218.286 103.74Z" fill="#0FF3AF"/>
<path d="M216.189 129.148C215.096 126.644 213.413 124.445 210.047 122.595C208.308 121.615 206.439 120.882 204.496 120.418C205.803 119.813 207.006 119.004 208.058 118.023C209.606 116.645 210.779 114.9 211.468 112.95C212.103 110.969 212.362 108.887 212.233 106.811C211.993 103.154 211.271 99.605 209.348 97.0578C207.424 94.5107 204.714 92.5513 201.13 91.1797C198.376 90.1347 195.556 89.4816 191.184 89.2421V75.3307L182.441 80.7734V89.2639H175.447V80.3379L166.486 75.3307V89.2639H147.448L153.568 99.7138C155.459 99.716 156.739 99.8902 157.393 100.215C158.003 100.475 158.505 100.936 158.814 101.521C159.098 102.065 159.229 103.35 159.229 105.331V143.037C159.229 144.997 159.098 146.26 158.814 146.826C158.529 147.392 158.376 147.892 157.699 148.197C157.021 148.502 156.999 148.48 155.12 148.48H155.098L147.448 158.93H166.464V172.863H175.425V158.93H182.42V172.863H191.163V158.843C196.846 158.56 200.889 157.82 204.146 156.601C208.364 155.033 211.599 152.747 213.916 149.743C216.233 146.739 217.173 142.145 217.37 138.596C217.523 135.44 217.173 131.368 216.189 129.148ZM175.425 101.02H175.427V100.731H181.539C184.977 100.731 196.435 99.5898 196.625 108.91C196.817 118.23 181.539 117.849 181.539 117.849H175.427V117.13H175.425V101.02ZM175.425 127.58H182.42C183.84 127.58 188.728 127.796 190.507 127.876C191.232 127.903 191.95 128.03 192.64 128.255C192.891 128.34 193.13 128.436 193.388 128.543C194.466 128.89 195.483 129.402 196.402 130.062C197.001 130.456 197.528 130.95 197.96 131.521C198.147 131.779 198.32 132.047 198.476 132.324C198.89 133.022 199.197 133.777 199.388 134.564C199.596 135.325 199.704 136.11 199.709 136.898C199.709 138.594 199.394 139.998 198.618 141.187C197.567 142.942 195.842 144.185 193.901 145.062C188.883 147.335 182.42 147.174 182.42 147.174H175.425V127.58Z" fill="#3F3D56"/>
<path opacity="0.3" d="M201.798 60.3844C201.732 60.2212 201.61 60.0866 201.454 60.0041C201.357 59.9474 201.252 59.9048 201.143 59.8777C201.217 59.8424 201.284 59.7954 201.343 59.7387C201.43 59.6579 201.496 59.5568 201.534 59.4443C201.569 59.3291 201.584 59.2084 201.577 59.088C201.576 58.8881 201.52 58.6923 201.415 58.522C201.298 58.3664 201.138 58.2479 200.954 58.1809C200.776 58.1121 200.588 58.074 200.397 58.0684V57.261L199.907 57.5769V58.0697H199.514V57.5516L199.012 57.261V58.0697H197.945L198.288 58.6761C198.361 58.6712 198.434 58.6811 198.502 58.7052C198.537 58.7206 198.565 58.7474 198.582 58.781C198.603 58.8527 198.611 58.9276 198.605 59.0021V61.1905C198.611 61.2645 198.603 61.339 198.582 61.4103C198.566 61.4432 198.557 61.4722 198.519 61.4899C198.482 61.5076 198.48 61.5063 198.375 61.5063H198.374L197.945 62.1128H199.011V62.9214H199.513V62.1128H199.905V62.9214H200.395V62.1077C200.643 62.1033 200.889 62.0594 201.123 61.9776C201.341 61.9003 201.531 61.7621 201.671 61.5796C201.793 61.3855 201.86 61.1618 201.865 60.9327C201.878 60.7474 201.855 60.5613 201.798 60.3844V60.3844ZM199.513 58.752H199.513V58.7352H199.856C200.049 58.7352 200.691 58.669 200.702 59.2098C200.712 59.7507 199.856 59.7286 199.856 59.7286H199.513V59.6869H199.513V58.752ZM199.513 60.2934H199.905C199.985 60.2934 200.259 60.3059 200.359 60.3106C200.399 60.3121 200.44 60.3195 200.478 60.3326C200.492 60.3375 200.506 60.3431 200.52 60.3493C200.581 60.3695 200.638 60.3993 200.689 60.4374C200.723 60.4605 200.752 60.4891 200.777 60.5221C200.814 60.5757 200.841 60.6355 200.857 60.6987C200.868 60.7429 200.874 60.7885 200.875 60.8342C200.879 60.9213 200.857 61.0077 200.813 61.0831C200.75 61.1833 200.658 61.2618 200.549 61.308C200.345 61.3913 200.126 61.4329 199.905 61.4305H199.513V60.2934Z" fill="#38D39F"/>
<path d="M119.836 125.655C124.994 125.655 129.176 121.49 129.176 116.352C129.176 111.215 124.994 107.05 119.836 107.05C114.678 107.05 110.497 111.215 110.497 116.352C110.497 121.49 114.678 125.655 119.836 125.655Z" fill="#38D39F"/>
<path d="M119.842 172.672V116.386" stroke="#3F3D56" stroke-width="2" stroke-miterlimit="10"/>
<path d="M119.842 118.746C121.165 118.746 122.238 117.678 122.238 116.36C122.238 115.042 121.165 113.973 119.842 113.973C118.519 113.973 117.446 115.042 117.446 116.36C117.446 117.678 118.519 118.746 119.842 118.746Z" fill="#3F3D56"/>
<path d="M119.842 128.549C119.842 128.549 119.5 121.217 112.483 122.069Z" fill="#3F3D56"/>
<path d="M127.201 159.469C128.525 159.469 129.597 158.4 129.597 157.082C129.597 155.765 128.525 154.696 127.201 154.696C125.878 154.696 124.806 155.765 124.806 157.082C124.806 158.4 125.878 159.469 127.201 159.469Z" fill="#3F3D56"/>
<path d="M119.843 172.016C119.843 172.016 118.303 157.764 127.202 157.082" stroke="#3F3D56" stroke-width="2" stroke-miterlimit="10"/>
<path d="M127.347 137.084C128.671 137.084 129.743 136.016 129.743 134.698C129.743 133.38 128.671 132.312 127.347 132.312C126.024 132.312 124.952 133.38 124.952 134.698C124.952 136.016 126.024 137.084 127.347 137.084Z" fill="#3F3D56"/>
<path d="M119.989 148.871C119.989 148.871 118.449 135.38 127.348 134.698" stroke="#3F3D56" stroke-width="2" stroke-miterlimit="10"/>
<path opacity="0.1" d="M193.901 145.062C188.883 147.335 182.42 147.174 182.42 147.174H175.425V145.844C178.276 145.051 182.216 144.561 186.573 144.561C189.024 144.553 191.474 144.72 193.901 145.062V145.062Z" fill="black"/>
<path opacity="0.1" d="M202.31 148.916C202.31 151.321 195.263 153.27 186.573 153.27C177.882 153.27 170.835 151.321 170.835 148.916C170.835 147.716 172.588 146.63 175.426 145.844V147.174H182.42C182.42 147.174 188.883 147.335 193.902 145.062C198.9 145.789 202.31 147.241 202.31 148.916Z" fill="black"/>
<path d="M188.583 121.805H181.887V128.486H188.583V121.805Z" fill="#2F2E41"/>
<path d="M184.376 126.529C184.376 126.529 184.931 128.462 183.961 128.6C183.359 128.693 182.788 128.93 182.298 129.29L184.099 131.636H187.425L189.503 129.566C189.503 129.566 186.732 127.495 187.286 126.253C187.84 125.011 184.376 126.529 184.376 126.529Z" fill="#FFB9B9"/>
<path opacity="0.1" d="M184.376 126.529C184.376 126.529 184.931 128.462 183.961 128.6C183.359 128.693 182.788 128.93 182.298 129.29L184.099 131.636H187.425L189.503 129.566C189.503 129.566 186.732 127.495 187.286 126.253C187.84 125.011 184.376 126.529 184.376 126.529Z" fill="black"/>
<path d="M185.208 150.543L188.395 151.647L190.612 151.785L190.473 149.853L185.901 148.506L185.208 150.543Z" fill="#FFB9B9"/>
<path d="M189.295 150.129C189.295 150.129 189.295 152.062 189.573 152.062C189.85 152.062 193.591 151.647 194.699 152.062C195.808 152.476 197.471 150.957 196.639 150.129C195.808 149.301 194.452 148.059 193.606 148.335C192.759 148.611 189.295 149.301 189.295 149.301L189.295 150.129Z" fill="#2F2E41"/>
<path d="M179.112 148.335C179.112 148.335 177.449 151.648 178.557 151.924C179.666 152.2 180.913 151.786 181.051 151.647C181.19 151.509 183.13 150.957 183.407 151.233C183.684 151.509 183.684 150.129 183.684 150.129L179.112 148.335Z" fill="#2F2E41"/>
<path d="M180.497 143.781C180.497 143.781 177.865 147.369 179.804 148.335C181.744 149.301 191.028 149.301 191.721 148.335C192.413 147.369 192.691 144.333 191.721 144.057C190.751 143.781 180.497 143.781 180.497 143.781Z" fill="#2F2E41"/>
<path opacity="0.2" d="M180.497 143.781C180.497 143.781 177.865 147.369 179.804 148.335C181.744 149.301 191.028 149.301 191.721 148.335C192.413 147.369 192.691 144.333 191.721 144.057C190.751 143.781 180.497 143.781 180.497 143.781Z" fill="black"/>
<path d="M185.485 127.495C187.245 127.495 188.672 126.074 188.672 124.321C188.672 122.568 187.245 121.147 185.485 121.147C183.725 121.147 182.298 122.568 182.298 124.321C182.298 126.074 183.725 127.495 185.485 127.495Z" fill="#FFB9B9"/>
<path d="M180.497 129.29L183.268 128.738C183.268 128.738 183.961 130.946 186.178 130.532C188.395 130.118 188.949 128.738 188.949 128.738C188.949 128.738 190.612 129.428 190.751 129.428C190.889 129.428 192.69 130.118 192.69 130.532C192.69 130.946 190.612 135.086 190.612 135.086L190.889 142.539L180.636 142.263L181.328 134.948L180.497 129.29Z" fill="#38D39F"/>
<path d="M178.973 132.878C178.973 132.878 178.141 140.193 178.695 140.745C179.25 141.297 181.467 142.815 181.467 142.815V141.159L180.358 139.088L181.467 134.258L178.973 132.878Z" fill="#FFB9B9"/>
<path d="M193.314 132.671C193.314 132.671 192.829 140.193 192.829 140.469C192.829 140.745 191.582 141.711 191.166 141.711C190.75 141.711 190.473 141.021 190.473 141.021L191.443 139.917L190.75 134.258L193.314 132.671Z" fill="#FFB9B9"/>
<path d="M191.998 143.229C191.998 143.229 198.233 139.779 198.371 143.229C198.51 146.679 195.184 148.059 195.184 148.059C195.184 148.059 186.594 150.625 186.247 149.687C185.901 148.749 185.208 147.231 185.762 147.093C186.317 146.955 187.009 146.679 187.286 146.955C187.564 147.231 191.028 144.885 191.028 144.885L191.998 143.229Z" fill="#2F2E41"/>
<path opacity="0.2" d="M194.907 142.815C194.907 142.815 193.66 143.367 193.244 143.781C192.829 144.195 191.027 144.885 191.027 144.885" stroke="black" stroke-width="2" stroke-miterlimit="10"/>
<path d="M181.328 129.566L180.497 129.29C180.497 129.29 177.449 132.464 178.419 133.292C179.389 134.12 179.943 134.396 180.22 134.672C180.497 134.948 181.883 135.086 181.883 135.086L181.328 129.566Z" fill="#38D39F"/>
<path d="M191.443 130.256L192.69 130.532C192.69 130.532 193.66 132.602 193.937 132.878C194.215 133.154 193.522 133.016 193.106 133.568C192.69 134.12 192.275 135.086 191.443 135.086C190.612 135.086 189.503 133.706 189.503 133.706L191.443 130.256Z" fill="#38D39F"/>
<path d="M180.774 144.471C180.774 144.471 175.509 140.745 173.707 143.505C171.906 146.265 181.467 149.991 182.853 150.543C184.238 151.095 185.485 151.647 185.485 151.647C185.485 151.647 186.732 148.611 186.732 148.059C186.732 147.507 185.762 147.507 185.485 147.507C185.208 147.507 183.961 147.231 183.684 146.817C183.407 146.403 180.774 144.471 180.774 144.471Z" fill="#2F2E41"/>
<path opacity="0.2" d="M177.864 143.505C177.864 143.505 179.25 144.609 180.497 144.885C181.744 145.161 182.16 145.851 182.16 145.851" stroke="black" stroke-width="2" stroke-miterlimit="10"/>
<path d="M179.818 138.316L179.929 144.159C179.933 144.352 180.013 144.536 180.152 144.67C180.291 144.805 180.478 144.879 180.672 144.877L191.589 144.755C191.775 144.753 191.954 144.68 192.088 144.552C192.223 144.424 192.304 144.25 192.314 144.065L192.646 138.344C192.651 138.245 192.637 138.145 192.603 138.051C192.568 137.958 192.515 137.872 192.447 137.8C192.378 137.727 192.295 137.67 192.203 137.63C192.111 137.591 192.013 137.57 191.912 137.57H180.553C180.455 137.57 180.359 137.59 180.269 137.627C180.179 137.665 180.097 137.72 180.029 137.789C179.96 137.859 179.906 137.941 179.87 138.032C179.834 138.122 179.817 138.218 179.818 138.316V138.316Z" fill="#575A89"/>
<path d="M178.556 129.324C178.853 128.671 179.253 128.057 179.443 127.365C179.671 126.536 179.582 125.658 179.555 124.799C179.512 124.039 179.577 123.276 179.748 122.534C179.922 121.788 180.313 121.111 180.872 120.585C182.324 119.294 184.982 119.201 186.755 119.739C187.454 119.951 188.199 120.354 188.372 121.061C188.398 121.168 188.41 121.278 188.439 121.384C188.584 121.91 189.125 122.243 189.32 122.753C189.572 123.413 189.183 124.131 189.132 124.835C189.073 125.657 189.479 126.434 189.879 127.156C190.116 127.585 190.364 128.041 190.34 128.531C190.32 128.799 190.239 129.058 190.101 129.289C189.846 129.708 189.489 130.055 189.063 130.299C188.636 130.542 188.154 130.674 187.663 130.681C187.343 130.707 187.024 130.632 186.749 130.467C186.317 130.17 186.19 129.572 186.28 129.057C186.37 128.541 186.633 128.075 186.839 127.593C186.902 127.446 186.959 127.295 187.012 127.144C187.65 126.789 188.142 126.221 188.4 125.539C188.659 124.858 188.668 124.108 188.425 123.421C188.182 122.735 187.703 122.155 187.073 121.786C186.443 121.416 185.703 121.281 184.982 121.402C184.261 121.524 183.607 121.896 183.134 122.451C182.662 123.007 182.402 123.711 182.4 124.439C182.398 125.167 182.654 125.873 183.124 126.431C183.594 126.989 184.246 127.364 184.966 127.489C185.122 128.268 185.051 129.075 184.763 129.815C184.501 130.418 184.172 130.989 183.782 131.519C183.623 131.79 183.41 132.027 183.158 132.215C182.991 132.313 182.812 132.389 182.625 132.441C181.843 132.692 181.019 132.894 180.204 132.781C179.39 132.668 178.584 132.179 178.306 131.408C178.063 130.733 178.258 129.978 178.556 129.324Z" fill="#2F2E41"/>
<path d="M185.331 124.448C187.199 124.448 188.713 123.593 188.713 122.539C188.713 121.485 187.199 120.63 185.331 120.63C183.463 120.63 181.949 121.485 181.949 122.539C181.949 123.593 183.463 124.448 185.331 124.448Z" fill="#2F2E41"/>
<path opacity="0.3" d="M237.004 116.705C236.953 116.578 236.858 116.474 236.737 116.41C236.661 116.366 236.58 116.332 236.495 116.311C236.552 116.284 236.604 116.247 236.65 116.203C236.718 116.141 236.769 116.062 236.799 115.975C236.826 115.885 236.838 115.791 236.832 115.698C236.831 115.542 236.788 115.39 236.706 115.258C236.615 115.137 236.491 115.045 236.348 114.993C236.21 114.939 236.063 114.91 235.915 114.905V114.278L235.534 114.524V114.906H235.229V114.504L234.839 114.278V114.906H234.01L234.276 115.378C234.333 115.374 234.39 115.382 234.443 115.4C234.47 115.412 234.492 115.433 234.505 115.459C234.521 115.515 234.527 115.573 234.523 115.631V117.331C234.527 117.389 234.521 117.447 234.505 117.502C234.492 117.528 234.486 117.55 234.456 117.564C234.427 117.578 234.426 117.577 234.344 117.577H234.343L234.01 118.048H234.838V118.677H235.228V118.048H235.533V118.677H235.914V118.044C236.107 118.041 236.298 118.007 236.48 117.943C236.648 117.883 236.796 117.776 236.905 117.634C237 117.483 237.052 117.309 237.056 117.131C237.066 116.987 237.048 116.843 237.004 116.705V116.705ZM235.228 115.437H235.229V115.424H235.495C235.645 115.424 236.144 115.372 236.152 115.792C236.16 116.213 235.495 116.196 235.495 116.196H235.229V116.163H235.228V115.437ZM235.228 116.634H235.533C235.595 116.634 235.808 116.644 235.885 116.648C235.917 116.649 235.948 116.655 235.978 116.665C235.989 116.669 236 116.673 236.011 116.678C236.058 116.694 236.102 116.717 236.142 116.746C236.169 116.764 236.191 116.786 236.21 116.812C236.239 116.854 236.26 116.9 236.272 116.949C236.281 116.984 236.286 117.019 236.286 117.055C236.289 117.122 236.273 117.189 236.239 117.248C236.19 117.326 236.118 117.387 236.033 117.423C235.875 117.488 235.705 117.52 235.533 117.518H235.228V116.634Z" fill="#38D39F"/>
<path opacity="0.3" d="M83.5648 130.421C83.5133 130.294 83.4186 130.189 83.2973 130.125C83.2218 130.081 83.1403 130.048 83.0554 130.027C83.1126 129.999 83.165 129.963 83.2106 129.919C83.2784 129.856 83.3295 129.778 83.3592 129.69C83.3868 129.601 83.3981 129.507 83.3925 129.413C83.392 129.258 83.3485 129.106 83.2668 128.973C83.1756 128.853 83.0513 128.76 82.9088 128.708C82.7704 128.655 82.6239 128.625 82.4756 128.621V127.994L82.0947 128.239V128.622H81.79V128.219L81.3996 127.994V128.622H80.5703L80.8369 129.093C80.8934 129.089 80.9501 129.097 81.0035 129.116C81.0304 129.128 81.0522 129.149 81.0654 129.175C81.0817 129.23 81.0878 129.289 81.0835 129.347V131.047C81.0877 131.105 81.0815 131.162 81.0654 131.218C81.0531 131.243 81.0464 131.266 81.0169 131.28C80.9874 131.293 80.9864 131.292 80.9045 131.292H80.9036L80.5703 131.764H81.3987V132.392H81.7891V131.764H82.0938V132.392H82.4746V131.76C82.6673 131.756 82.8583 131.722 83.0402 131.659C83.209 131.599 83.3568 131.491 83.4658 131.349C83.5608 131.199 83.6128 131.025 83.6162 130.847C83.6263 130.703 83.6088 130.558 83.5648 130.421ZM81.7891 129.152H81.7892V129.139H82.0554C82.2052 129.139 82.7043 129.088 82.7126 129.508C82.7209 129.928 82.0554 129.911 82.0554 129.911H81.7892V129.879H81.7891L81.7891 129.152ZM81.7891 130.35H82.0938C82.1557 130.35 82.3686 130.36 82.4461 130.363C82.4777 130.365 82.509 130.37 82.539 130.38C82.5499 130.384 82.5603 130.389 82.5716 130.393C82.6187 130.409 82.663 130.432 82.7029 130.462C82.7291 130.48 82.7521 130.502 82.7707 130.528C82.7996 130.569 82.8207 130.616 82.8329 130.665C82.842 130.699 82.8467 130.735 82.8469 130.77C82.85 130.838 82.8336 130.905 82.7994 130.964C82.7505 131.041 82.6788 131.102 82.5939 131.138C82.4353 131.203 82.2652 131.235 82.0938 131.234H81.7891L81.7891 130.35Z" fill="#38D39F"/>
</g>
<defs>
<clipPath id="clip0">
<rect width="204" height="137" fill="white" transform="translate(68 36)"/>
</clipPath>
</defs>
</svg>
