<svg width="272" height="209" viewBox="0 0 272 209" fill="none" xmlns="http://www.w3.org/2000/svg">
<path d="M62.3695 25.627C58.8449 27.4624 55.3145 29.7733 53.5203 33.3194C52.2015 35.9289 51.9609 38.9212 51.7435 41.8323L49.1348 76.5857C48.5551 84.3303 47.9203 92.2894 44.5407 99.283C38.7175 111.33 26.0394 118.205 16.5207 127.605C0.923725 143.01 -5.77186 168.978 5.94107 187.512C11.1083 195.613 19.0908 201.514 28.3495 204.077C33.7814 205.555 39.4567 205.816 45.0798 206.069C92.1808 208.112 139.314 208.931 186.478 208.527C192.078 208.478 197.832 208.382 203 206.254C210.139 203.317 215.269 196.851 218.803 189.985C222.336 183.119 224.6 175.664 227.942 168.706C234.782 154.498 245.913 142.917 255.611 130.499C260.959 123.656 265.964 116.404 268.967 108.257C273.741 95.3078 272.906 80.0767 265.446 68.4642C262.222 63.4452 257.834 59.0988 255.64 53.5521C252.576 45.7959 254.286 37.109 255.017 28.802C255.747 20.4949 254.947 11.0107 248.556 5.6553C245.028 2.70071 240.356 1.53511 235.802 0.86823C214.003 -2.32122 192.107 3.99099 170.49 8.24745C151.415 12.0168 132.076 14.174 112.725 15.8934C95.5488 17.4244 78.0447 17.465 62.3695 25.627Z" fill="#2ABD77"/>
<path d="M152.571 175.152C191.747 175.152 223.506 143.33 223.506 104.076C223.506 64.8219 191.747 33 152.571 33C113.395 33 81.6367 64.8219 81.6367 104.076C81.6367 143.33 113.395 175.152 152.571 175.152Z" fill="#2EEB7A"/>
<path d="M91.1456 185C106.69 185 119.291 182.98 119.291 180.488C119.291 177.996 106.69 175.975 91.1456 175.975C75.6012 175.975 63 177.996 63 180.488C63 182.98 75.6012 185 91.1456 185Z" fill="#F2F2F2"/>
<path d="M228.45 180.413C252.502 180.413 272 177.287 272 173.431C272 169.575 252.502 166.449 228.45 166.449C204.399 166.449 184.901 169.575 184.901 173.431C184.901 177.287 204.399 180.413 228.45 180.413Z" fill="#F2F2F2"/>
<path d="M218.774 106.322C218.774 106.322 219.145 107.56 217.044 108.675C214.943 109.789 214.325 114 216.797 115.238C219.269 116.476 220.01 118.086 218.774 119.201C217.538 120.315 215.314 123.287 218.28 124.03C221.246 124.773 221.617 126.259 220.752 126.878C219.887 127.498 222.729 125.764 222.729 125.764C222.729 125.764 223.223 128.736 225.819 127.993C228.414 127.25 235.706 113.133 231.998 111.151C228.291 109.17 218.774 106.322 218.774 106.322Z" fill="#2F2E41"/>
<path d="M223.254 118.279C223.254 118.279 224.536 122.775 222.293 123.096C220.901 123.314 219.581 123.865 218.447 124.702L222.613 130.161H230.305L235.113 125.344C235.113 125.344 228.703 120.527 229.985 117.637C231.267 114.747 223.254 118.279 223.254 118.279Z" fill="#FFB9B9"/>
<path opacity="0.1" d="M223.254 118.279C223.254 118.279 224.536 122.775 222.293 123.096C220.901 123.314 219.581 123.865 218.447 124.702L222.613 130.161H230.305L235.113 125.344C235.113 125.344 228.703 120.527 229.985 117.637C231.267 114.747 223.254 118.279 223.254 118.279Z" fill="black"/>
<path d="M225.177 174.157L232.548 176.726L237.676 177.047L237.356 172.552L226.779 169.417L225.177 174.157Z" fill="#FFB9B9"/>
<path d="M234.632 173.194C234.632 173.194 234.632 177.69 235.273 177.69C235.914 177.69 244.567 176.726 247.131 177.69C249.695 178.653 253.541 175.121 251.618 173.194C249.695 171.267 246.559 168.377 244.601 169.019C242.644 169.661 234.632 171.267 234.632 171.267V173.194Z" fill="#575A89"/>
<path d="M211.075 169.019C211.075 169.019 207.229 176.726 209.793 177.369C212.357 178.011 215.242 177.047 215.562 176.726C215.883 176.405 220.37 175.121 221.011 175.763C221.652 176.405 221.652 173.194 221.652 173.194L211.075 169.019Z" fill="#575A89"/>
<path d="M214.28 158.421C214.28 158.421 208.19 166.771 212.677 169.019C217.164 171.267 238.638 171.267 240.24 169.019C241.843 166.771 242.484 159.706 240.24 159.064C237.997 158.421 214.28 158.421 214.28 158.421Z" fill="#2F2E41"/>
<path opacity="0.2" d="M214.28 158.421C214.28 158.421 208.19 166.771 212.677 169.019C217.164 171.267 238.638 171.267 240.24 169.019C241.843 166.771 242.484 159.706 240.24 159.064C237.997 158.421 214.28 158.421 214.28 158.421Z" fill="black"/>
<path d="M225.818 120.527C229.889 120.527 233.19 117.22 233.19 113.141C233.19 109.062 229.889 105.755 225.818 105.755C221.747 105.755 218.447 109.062 218.447 113.141C218.447 117.22 221.747 120.527 225.818 120.527Z" fill="#FFB9B9"/>
<path d="M214.28 124.702L220.69 123.417C220.69 123.417 222.292 128.556 227.42 127.592C232.548 126.629 233.83 123.417 233.83 123.417C233.83 123.417 237.676 125.023 237.997 125.023C238.317 125.023 242.484 126.629 242.484 127.592C242.484 128.556 237.676 138.19 237.676 138.19L238.317 155.531L214.6 154.889L216.203 137.869L214.28 124.702Z" fill="#38D39F"/>
<path d="M210.755 133.052C210.755 133.052 208.832 150.072 210.114 151.356C211.396 152.641 216.524 156.174 216.524 156.174V152.32L213.96 147.503L216.524 136.263L210.755 133.052Z" fill="#FFB9B9"/>
<path d="M243.926 132.57C243.926 132.57 242.804 150.072 242.804 150.714C242.804 151.356 239.92 153.604 238.958 153.604C237.997 153.604 237.356 151.999 237.356 151.999L239.599 149.43L237.997 136.263L243.926 132.57Z" fill="#FFB9B9"/>
<path d="M240.881 157.137C240.881 157.137 255.303 149.108 255.624 157.137C255.944 165.165 248.253 168.377 248.253 168.377C248.253 168.377 228.382 174.347 227.58 172.165C226.779 169.982 225.177 166.45 226.459 166.129C227.741 165.808 229.343 165.165 229.984 165.808C230.625 166.45 238.638 160.991 238.638 160.991L240.881 157.137Z" fill="#2F2E41"/>
<path opacity="0.2" d="M247.612 156.174C247.612 156.174 244.727 157.458 243.766 158.421C242.804 159.385 238.638 160.991 238.638 160.991" stroke="black" stroke-width="2" stroke-miterlimit="10"/>
<path d="M216.203 125.344L214.28 124.702C214.28 124.702 207.229 132.088 209.473 134.015C211.716 135.942 212.998 136.584 213.639 137.226C214.28 137.869 217.485 138.19 217.485 138.19L216.203 125.344Z" fill="#38D39F"/>
<path d="M239.599 126.95L242.484 127.592C242.484 127.592 244.727 132.409 245.368 133.052C246.009 133.694 244.407 133.373 243.445 134.657C242.484 135.942 241.522 138.19 239.599 138.19C237.676 138.19 235.112 134.978 235.112 134.978L239.599 126.95Z" fill="#38D39F"/>
<path d="M214.921 160.027C214.921 160.027 202.742 151.356 198.576 157.779C194.409 164.202 216.524 172.873 219.729 174.157C222.934 175.442 225.818 176.726 225.818 176.726C225.818 176.726 228.703 169.661 228.703 168.377C228.703 167.092 226.459 167.092 225.818 167.092C225.177 167.092 222.293 166.45 221.652 165.486C221.011 164.523 214.921 160.027 214.921 160.027Z" fill="#2F2E41"/>
<path opacity="0.2" d="M208.19 157.779C208.19 157.779 211.395 160.348 214.28 160.991C217.164 161.633 218.126 163.239 218.126 163.239" stroke="black" stroke-width="2" stroke-miterlimit="10"/>
<path d="M212.71 145.705L212.966 159.302C212.975 159.751 213.16 160.178 213.482 160.491C213.804 160.804 214.236 160.977 214.684 160.972L239.937 160.687C240.367 160.682 240.78 160.514 241.091 160.216C241.402 159.919 241.589 159.514 241.614 159.083L242.38 145.77C242.394 145.539 242.36 145.307 242.28 145.09C242.201 144.872 242.078 144.673 241.92 144.504C241.761 144.335 241.569 144.201 241.357 144.109C241.145 144.018 240.916 143.97 240.684 143.97H214.409C214.183 143.97 213.959 144.015 213.751 144.103C213.543 144.19 213.354 144.319 213.196 144.48C213.038 144.642 212.914 144.833 212.83 145.043C212.747 145.254 212.706 145.478 212.71 145.705V145.705Z" fill="#575A89"/>
<path d="M226.211 103.863C226.211 103.863 226.622 105.234 224.295 106.469C221.967 107.704 221.283 112.368 224.021 113.74C226.759 115.112 227.58 116.895 226.211 118.13C224.842 119.365 222.378 122.657 225.664 123.48C228.95 124.303 229.36 125.949 228.402 126.635C227.444 127.321 230.593 125.401 230.593 125.401C230.593 125.401 231.14 128.693 234.015 127.87C236.891 127.047 239.759 112.085 236.554 108.231C233.574 104.648 226.211 103.863 226.211 103.863Z" fill="#2F2E41"/>
<path d="M225.337 102.451C225.338 100.441 231.339 101.885 233.912 104.691C235.694 106.634 238.4 109.558 236.132 111.619C233.864 113.679 240.019 116.381 241.67 117.2C243.32 118.019 246.579 120.524 243.637 122.204C240.694 123.884 240.741 125.581 241.849 125.982C242.956 126.384 239.407 125.385 239.407 125.385C239.407 125.385 239.766 128.704 236.776 128.688C233.785 128.672 225.207 112.206 227.256 107.629C229.162 103.374 225.337 102.451 225.337 102.451Z" fill="#2F2E41"/>
<path d="M226.637 102.01C218.612 101.526 217.807 107.579 217.807 107.579C217.862 111.081 223.413 109.375 224.955 109.897C226.815 108.556 230.401 106.019 232.965 104.208C231.104 102.895 228.911 102.133 226.637 102.01Z" fill="#2F2E41"/>
<path d="M224.351 140.633C224.351 140.633 217.152 106.829 172.096 82.3074" stroke="#3F3D56" stroke-width="2" stroke-miterlimit="10"/>
<path d="M173.953 81.5701L174.043 81.9408L172.221 82.3836L172.795 84.1727L172.432 84.2891L171.733 82.11L173.953 81.5701Z" fill="#3F3D56"/>
<path d="M76.0215 175.173C76.0215 179.455 73.4815 180.95 70.3479 180.95C70.2753 180.95 70.2028 180.949 70.1305 180.947C69.9853 180.944 69.8415 180.937 69.6994 180.928C66.8714 180.727 64.6743 179.155 64.6743 175.173C64.6743 171.053 69.9296 165.853 70.3244 165.468L70.3251 165.468C70.3403 165.453 70.3479 165.445 70.3479 165.445C70.3479 165.445 76.0215 170.892 76.0215 175.173Z" fill="#38D39F"/>
<path d="M70.1413 180.295L72.2164 177.389L70.1361 180.614L70.1306 180.947C69.9854 180.944 69.8416 180.937 69.6995 180.928L69.9232 176.644L69.9214 176.611L69.9252 176.605L69.9463 176.2L67.8608 172.968L69.9529 175.897L69.9577 175.983L70.1268 172.746L68.3413 169.406L70.1485 172.178L70.3245 165.468L70.3252 165.445V165.468L70.2958 170.759L72.0733 168.661L70.2885 171.214L70.2415 174.112L71.9011 171.331L70.2346 174.539L70.2083 176.149L72.6177 172.279L70.1994 176.712L70.1413 180.295Z" fill="#3F3D56"/>
<path d="M103.083 174.064L104.297 173.161C104.297 173.161 105.1 177.657 104.204 178.331C103.307 179.005 99.9458 180.127 99.9458 181.475C99.9458 182.822 92.326 184.618 92.1019 182.597C91.8778 180.576 92.7742 179.454 92.7742 179.454C92.7742 179.454 96.36 175.861 96.8082 175.187C97.2564 174.513 98.377 173.166 98.377 173.166L103.083 174.064Z" fill="#2F2E41"/>
<path d="M85.1543 118.149C85.1543 118.149 85.1879 118.347 85.2462 118.708C85.3 119.029 85.3739 119.483 85.4636 120.042C86.4049 125.798 89.1502 142.741 88.9642 143.3C88.7401 143.973 87.1713 146.443 88.9642 147.117C89.1368 147.182 89.3228 147.393 89.5222 147.726C89.9072 148.442 90.2246 149.192 90.4702 149.967C91.5392 153.075 92.6822 158.049 93.3433 161.493C93.6324 163.007 93.8296 164.224 93.8879 164.862C93.9082 165.009 93.9104 165.159 93.8946 165.306C93.6705 166.205 95.2393 169.348 95.9116 170.247C96.584 171.145 97.7045 172.043 97.4804 172.941C97.2563 173.84 103.083 176.31 103.756 174.738C104.428 173.166 104.428 172.268 104.652 171.819C104.876 171.37 105.1 168.226 103.98 167.777C102.859 167.327 103.531 159.468 102.411 157.896C102.037 157.373 101.465 155.601 100.867 153.47C100.631 152.635 100.394 151.745 100.161 150.854C99.215 147.2 98.3769 143.524 98.3769 143.524L98.601 117.251L86.2748 115.679L85.9589 116.377L85.3291 117.763L85.1543 118.149Z" fill="#2F2E41"/>
<path d="M84.4821 161.264C84.4821 161.264 82.6892 159.468 81.7928 161.264C80.8964 163.061 79.9999 170.022 78.4311 171.594C76.8623 173.166 74.8453 181.026 77.0865 181.475C79.3276 181.924 81.7928 180.801 82.0169 179.454C82.241 178.106 86.9473 171.145 86.9473 170.471C86.9473 169.798 83.8098 167.327 83.8098 167.327L84.4821 161.264Z" fill="#2F2E41"/>
<path d="M112.048 105.798C112.048 105.798 109.134 132.072 108.462 134.542C107.789 137.012 104.204 146.443 103.083 148.015C101.963 149.587 94.791 162.387 93.8946 163.061C92.9981 163.735 91.2053 165.531 91.2053 165.531C91.2053 165.531 87.8436 168.899 87.3954 169.573C86.9471 170.247 83.1372 168.226 82.9131 166.878C82.689 165.531 83.1372 163.285 83.3614 162.387C83.5855 161.489 82.9131 160.142 83.5855 159.468C84.2578 158.794 87.6195 155.426 87.6195 153.854C87.6195 152.282 93.4464 143.075 95.6875 141.054C97.9286 139.033 97.4804 135.665 97.4804 135.665V121.967L85.1542 118.149C85.1542 118.149 85.8266 107.37 87.3954 107.37C88.9641 107.37 109.582 103.777 112.048 105.798Z" fill="#2F2E41"/>
<path d="M93.8947 68.2971C97.9792 68.2971 101.29 64.9793 101.29 60.8866C101.29 56.7939 97.9792 53.4762 93.8947 53.4762C89.8102 53.4762 86.499 56.7939 86.499 60.8866C86.499 64.9793 89.8102 68.2971 93.8947 68.2971Z" fill="#9F616A"/>
<path d="M96.3599 66.7251C96.3599 66.7251 97.2564 70.0935 98.3769 70.9918C99.4975 71.89 95.4635 75.7075 95.4635 75.7075L87.8437 76.1566L86.499 71.89C86.499 71.89 88.9642 66.9497 88.2919 63.8059C87.6196 60.662 96.3599 66.7251 96.3599 66.7251Z" fill="#9F616A"/>
<path d="M99.4974 70.5427C99.4974 70.5427 97.4804 70.7672 97.0322 71.4409C96.584 72.1146 93.4464 74.1356 90.9812 73.6865C88.516 73.2374 86.9472 72.5637 86.499 72.7882C86.0507 73.0128 85.1543 77.7285 85.1543 77.7285L87.6195 84.9144L87.1713 104.676L86.499 110.065C86.499 110.065 85.1543 108.269 90.533 109.391C95.9116 110.514 102.859 108.493 105.1 108.269C107.341 108.044 111.151 107.37 111.375 106.023C111.599 104.676 110.703 99.7353 110.703 99.7353L107.117 84.6899L104.876 76.6057L99.4974 70.5427Z" fill="#38D39F"/>
<path d="M97.3774 69.5291C97.3774 69.5291 99.2732 68.5216 99.9455 69.4198C100.618 70.318 109.134 71.6654 109.134 72.3391C109.134 73.0127 110.927 91.202 110.479 92.7739C110.031 94.3459 111.375 96.1423 111.375 96.1423L112.944 102.879C112.944 102.879 117.202 115.679 115.409 116.128C113.616 116.577 112.048 116.128 111.375 116.128C110.703 116.128 110.927 107.595 109.134 105.349C107.341 103.104 104.876 97.4897 104.428 96.3669C103.98 95.2441 98.3767 79.7495 98.6008 77.953C98.8249 76.1566 97.3774 69.5291 97.3774 69.5291Z" fill="#D0CDE1"/>
<path d="M88.0679 70.5427C88.0679 70.5427 86.2751 70.5427 86.0509 70.9918C85.8268 71.4409 83.5857 74.3602 82.6893 75.0338C81.7928 75.7075 78.6553 78.6268 78.6553 79.3005C78.6553 79.9741 85.1545 84.9144 85.1545 84.9144C85.1545 84.9144 87.8438 98.1634 86.4992 102.655C85.1545 107.146 83.1375 117.925 84.0339 118.598C84.9304 119.272 86.9474 119.496 86.9474 118.598C86.9474 117.7 88.2921 108.044 89.4126 106.023C90.5332 104.002 93.8948 91.2021 92.5502 87.6091C91.2055 84.0162 88.0679 70.5427 88.0679 70.5427Z" fill="#D0CDE1"/>
<path d="M117.651 92.7739C117.651 92.7739 117.875 99.7352 115.41 103.328C112.944 106.921 111.376 110.963 111.376 110.963C111.376 110.963 107.342 109.84 106.669 108.493C105.997 107.146 101.739 108.268 101.739 107.819C101.739 107.37 106.893 105.125 107.342 104.676C107.79 104.226 109.359 104.226 110.255 103.328C111.151 102.43 111.376 100.409 111.376 100.409L112.272 94.5704L117.651 92.7739Z" fill="#9F616A"/>
<path d="M98.9887 56.3175C99.5577 56.2657 100.144 56.2087 100.647 55.937C101.774 55.3282 102.073 53.5944 101.215 52.6422C100.979 52.4 100.714 52.1868 100.427 52.0074L98.7236 50.8456C97.9702 50.3317 97.1989 49.8095 96.3202 49.5672C95.5253 49.3481 94.6859 49.3706 93.8631 49.4219C92.2659 49.5213 90.6589 49.7268 89.1566 50.2794C87.6544 50.8319 86.253 51.7563 85.3432 53.0754C83.9008 55.1666 83.881 57.9869 84.6754 60.401C85.4698 62.8151 86.9788 64.9174 88.4658 66.977L89.2373 63.205C89.306 62.8691 89.3948 62.5008 89.6737 62.302C90.3668 61.8078 91.2146 62.8225 92.0653 62.8159C92.6118 62.8117 93.0707 62.3612 93.2778 61.8544C93.485 61.3476 93.4986 60.7863 93.5465 60.2407C93.648 59.0852 94.0511 57.4773 95.1433 56.84C96.161 56.2462 97.8448 56.4216 98.9887 56.3175Z" fill="#2F2E41"/>
<path opacity="0.1" d="M98.5738 118.33C98.5738 118.33 97.8169 140.268 97.3686 140.942C96.9204 141.615 97.3686 118.261 97.3686 118.261L98.5738 118.33Z" fill="black"/>
<path d="M107.341 72.3391H109.134C109.134 72.3391 116.754 82.6688 115.858 83.3425C114.961 84.0161 115.858 85.8126 115.858 85.8126L117.65 89.181C117.65 89.181 119.892 91.202 119.219 91.6511C118.547 92.1003 117.65 93.8967 117.65 93.8967C117.65 93.8967 113.168 93.2231 111.824 95.9178L108.917 92.2409L107.341 72.3391Z" fill="#D0CDE1"/>
<path d="M107.975 75.6616L101.823 78.2072L106.558 89.6948L112.71 87.1492L107.975 75.6616Z" fill="#2F2E41"/>
<path d="M107.254 82.3992C107.934 82.118 108.276 81.383 108.018 80.7575C107.76 80.1319 107 79.8528 106.321 80.134C105.641 80.4152 105.299 81.1502 105.557 81.7757C105.815 82.4012 106.575 82.6803 107.254 82.3992Z" fill="#38D39F"/>
<path d="M102.859 90.3038C102.859 90.3038 86.723 103.777 84.0336 99.5107C81.3443 95.2441 86.9471 91.6512 86.9471 91.6512C86.9471 91.6512 91.8775 91.8757 97.4803 88.2828L103.083 85.8126C103.083 85.8126 108.198 78.4956 109.941 81.2819C111.684 84.0681 106.966 88.9174 102.859 90.3038Z" fill="#9F616A"/>
<path d="M81.1205 78.4022L78.6552 79.3004V86.0372L77.7588 87.3845C77.7588 87.3845 77.9829 90.0792 78.6552 90.7529C79.3276 91.4266 80.6722 91.202 80.224 92.7739C79.9546 93.7987 79.8786 94.865 79.9999 95.9177C79.9999 95.9177 84.0339 101.083 84.258 100.409C84.4821 99.7352 87.6197 91.4266 88.0679 91.4266C88.5161 91.4266 83.5857 78.4022 83.5857 78.4022H81.1205Z" fill="#D0CDE1"/>
<path d="M110.591 112.423C110.591 112.423 112.908 110.177 111.75 110.065C110.591 109.953 106.557 107.707 105.885 108.83C105.212 109.953 110.591 112.423 110.591 112.423Z" fill="#2F2E41"/>
<path d="M154.663 69.5861C156.449 69.5861 157.896 68.8183 157.896 67.8711C157.896 66.924 156.449 66.1562 154.663 66.1562C152.878 66.1562 151.43 66.924 151.43 67.8711C151.43 68.8183 152.878 69.5861 154.663 69.5861Z" fill="#57B894"/>
<path d="M167.025 73.5878C159.735 70.829 152.445 70.829 145.155 73.5878V64.6318C152.286 62.4756 159.894 62.4756 167.025 64.6318V73.5878Z" stroke="#3F3D56" stroke-width="2" stroke-miterlimit="10"/>
<path d="M163.982 71.7356C158.72 69.7445 153.459 69.7445 148.197 71.7356V65.2718C153.344 63.7156 158.835 63.7156 163.982 65.2718V71.7356Z" stroke="#3F3D56" stroke-width="2" stroke-miterlimit="10"/>
<path d="M155.804 68.8239C157.59 68.8239 159.037 68.0561 159.037 67.1089C159.037 66.1618 157.59 65.394 155.804 65.394C154.019 65.394 152.571 66.1618 152.571 67.1089C152.571 68.0561 154.019 68.8239 155.804 68.8239Z" stroke="#3F3D56" stroke-width="2" stroke-miterlimit="10"/>
<path d="M157.041 80.3264C158.79 79.9686 160.055 78.9263 159.866 77.9983C159.677 77.0702 158.106 76.608 156.356 76.9657C154.607 77.3235 153.342 78.3658 153.531 79.2939C153.72 80.2219 155.291 80.6842 157.041 80.3264Z" fill="#57B894"/>
<path d="M169.951 81.7703C162.258 80.528 155.115 81.9887 148.523 86.1524L146.735 77.3774C153.292 73.8359 160.746 72.3115 168.164 72.9952L169.951 81.7703Z" stroke="#3F3D56" stroke-width="2" stroke-miterlimit="10"/>
<path d="M166.6 80.5652C161.047 79.6686 155.892 80.7228 151.134 83.728L149.844 77.3946C154.577 74.8386 159.956 73.7384 165.31 74.2319L166.6 80.5652Z" stroke="#3F3D56" stroke-width="2" stroke-miterlimit="10"/>
<path d="M158.006 79.3509C159.756 78.9932 161.021 77.9508 160.832 77.0228C160.643 76.0948 159.071 75.6325 157.322 75.9902C155.572 76.348 154.308 77.3904 154.497 78.3184C154.686 79.2464 156.257 79.7087 158.006 79.3509Z" stroke="#3F3D56" stroke-width="2" stroke-miterlimit="10"/>
<path d="M159.253 89.5303C159.319 88.5854 157.928 87.7188 156.147 87.5946C154.366 87.4704 152.869 88.1357 152.803 89.0805C152.737 90.0254 154.128 90.8921 155.909 91.0163C157.69 91.1405 159.188 90.4752 159.253 89.5303Z" fill="#57B894"/>
<path d="M167.963 95.868C160.882 92.6088 153.61 92.1018 146.146 94.3468L146.766 85.4124C154.03 83.7575 161.619 84.2867 168.584 86.9337L167.963 95.868Z" stroke="#3F3D56" stroke-width="2" stroke-miterlimit="10"/>
<path d="M165.056 93.8088C159.945 91.4565 154.696 91.0905 149.31 92.7109L149.757 86.2626C155 85.0681 160.477 85.4501 165.504 87.3605L165.056 93.8088Z" stroke="#3F3D56" stroke-width="2" stroke-miterlimit="10"/>
<path d="M160.444 88.8492C160.51 87.9044 159.119 87.0377 157.338 86.9135C155.557 86.7893 154.059 87.4546 153.994 88.3995C153.928 89.3444 155.319 90.211 157.1 90.3352C158.881 90.4594 160.378 89.7941 160.444 88.8492Z" stroke="#3F3D56" stroke-width="2" stroke-miterlimit="10"/>
<path d="M141.907 73.7957C141.907 73.7957 127.93 71.8797 117.949 77.7409" stroke="#3F3D56" stroke-width="2" stroke-miterlimit="10"/>
<path d="M118.285 75.7713L118.648 75.8863L118.08 77.6773L119.905 78.1135L119.816 78.4845L117.594 77.9527L118.285 75.7713Z" fill="#3F3D56"/>
</svg>
