<svg width="954" height="550" viewBox="0 0 954 550" fill="none" xmlns="http://www.w3.org/2000/svg">
<path d="M688.02 59.7H206.42C193.574 59.7 183.16 70.1139 183.16 82.96V364.43C183.16 377.276 193.574 387.69 206.42 387.69H688.02C700.866 387.69 711.28 377.276 711.28 364.43V82.96C711.28 70.1139 700.866 59.7 688.02 59.7Z" fill="#535461"/>
<path d="M699.05 107.51H194.28V375.46H699.05V107.51Z" fill="white"/>
<path d="M446.67 88.61C449.128 88.61 451.12 86.6177 451.12 84.16C451.12 81.7023 449.128 79.71 446.67 79.71C444.212 79.71 442.22 81.7023 442.22 84.16C442.22 86.6177 444.212 88.61 446.67 88.61Z" fill="white"/>
<path d="M524.6 376.01L507.26 393.8H385L369.33 376.01H120.34C118.865 376.01 117.451 376.596 116.408 377.638C115.366 378.681 114.78 380.095 114.78 381.57V386.05C114.78 394.298 118.057 402.209 123.889 408.041C129.721 413.873 137.632 417.15 145.88 417.15H746.34C750.424 417.15 754.468 416.346 758.241 414.783C762.015 413.22 765.443 410.929 768.331 408.041C771.219 405.153 773.51 401.725 775.073 397.951C776.636 394.178 777.44 390.134 777.44 386.05V381.57C777.44 380.095 776.854 378.681 775.811 377.638C774.769 376.596 773.355 376.01 771.88 376.01H524.6Z" fill="#535461"/>
<path d="M258.77 124.19V352.11H635.67" stroke="#535461" stroke-width="2" stroke-miterlimit="10"/>
<path opacity="0.5" d="M331.03 283.18H292.12V343.22H331.03V283.18Z" fill="#00BB00"/>
<path opacity="0.7" d="M397.74 229.81H358.83V343.22H397.74V229.81Z" fill="#00BB00"/>
<path opacity="0.5" d="M464.45 262.05H425.54V343.21H464.45V262.05Z" fill="#00BB00"/>
<path opacity="0.8" d="M531.16 212.02H492.25V343.22H531.16V212.02Z" fill="#00BB00"/>
<path d="M597.87 165.32H558.96V343.21H597.87V165.32Z" fill="#00BB00"/>
<path d="M311.02 246.49L378.84 185.34L445.55 243.15L511.15 173.11L577.86 145.31" stroke="#535461" stroke-width="2" stroke-miterlimit="10"/>
<path d="M311.02 254.27C315.317 254.27 318.8 250.787 318.8 246.49C318.8 242.193 315.317 238.71 311.02 238.71C306.723 238.71 303.24 242.193 303.24 246.49C303.24 250.787 306.723 254.27 311.02 254.27Z" fill="#00BB00"/>
<path d="M444.44 249.82C448.737 249.82 452.22 246.337 452.22 242.04C452.22 237.743 448.737 234.26 444.44 234.26C440.143 234.26 436.66 237.743 436.66 242.04C436.66 246.337 440.143 249.82 444.44 249.82Z" fill="#00BB00"/>
<path d="M512.26 180.89C516.557 180.89 520.04 177.407 520.04 173.11C520.04 168.813 516.557 165.33 512.26 165.33C507.963 165.33 504.48 168.813 504.48 173.11C504.48 177.407 507.963 180.89 512.26 180.89Z" fill="#00BB00"/>
<path d="M378.84 192C383.137 192 386.62 188.517 386.62 184.22C386.62 179.923 383.137 176.44 378.84 176.44C374.543 176.44 371.06 179.923 371.06 184.22C371.06 188.517 374.543 192 378.84 192Z" fill="#00BB00"/>
<path d="M577.86 153.09C582.157 153.09 585.64 149.607 585.64 145.31C585.64 141.013 582.157 137.53 577.86 137.53C573.563 137.53 570.08 141.013 570.08 145.31C570.08 149.607 573.563 153.09 577.86 153.09Z" fill="#00BB00"/>
<path d="M867.31 385.75C863.21 384.4 857.13 382.84 852.31 383.39C847.72 381.72 836.93 377.39 829.56 370.87C829.773 364.459 829.609 358.042 829.07 351.65C825.3 308.78 833.78 280.52 833.78 280.52C833.78 280.52 840.44 258.96 839.71 241.07C840.14 241.88 840.38 242.36 840.38 242.36C840.96 226.93 846.22 210.96 850.16 201.01C850.31 200.967 850.457 200.914 850.6 200.85L855 190.41C855.351 189.801 855.629 189.153 855.83 188.48L856.54 186.83L856.33 186.74C856.4 186.47 856.47 186.18 856.54 185.89C859.35 174 861.54 145.8 861.54 145.8C869.08 116.12 851.18 97.8 851.18 97.8L820.8 71.66C820.951 72.0003 821.052 72.3607 821.1 72.73L820.85 72.51C820.42 71.28 819.95 69.81 819.49 68.13C820.562 67.3606 821.565 66.5008 822.49 65.56C825.944 62.2979 828.32 58.0589 829.3 53.41C829.889 49.7745 830.04 46.0815 829.75 42.41L829.25 29.8C829.227 27.3321 828.976 24.8716 828.5 22.45C826.21 12.45 815.96 5.44999 805.67 4.98999C802.396 4.97093 799.124 5.14456 795.87 5.50999C793.209 5.72858 790.538 5.78535 787.87 5.67999C787.566 5.69608 787.265 5.61557 787.01 5.45C786.778 5.21901 786.646 4.90702 786.64 4.57999C786.587 3.99472 786.654 3.40489 786.837 2.84624C787.019 2.28758 787.313 1.77173 787.7 1.32999C788.103 0.976953 788.572 0.708319 789.08 0.539993L788.35 0.709991C788.71 0.426184 789.116 0.206324 789.55 0.0599976C786.883 0.528976 784.318 1.45959 781.97 2.81C781.323 3.23496 780.729 3.73511 780.2 4.29999C778.802 5.52693 777.893 7.21698 777.64 9.06C776.387 8.00218 775.453 6.61748 774.94 5.06C774.781 4.42313 774.781 3.75686 774.94 3.12C774.76 3.34 774.587 3.56665 774.42 3.79999C774.42 3.72999 774.42 3.66 774.42 3.59C772.487 5.96543 771.12 8.74878 770.42 11.73C770.151 11.4072 769.949 11.034 769.825 10.6323C769.701 10.2306 769.659 9.80829 769.7 9.39C769.55 9.86 769.41 10.33 769.28 10.8C769.235 10.4883 769.235 10.1717 769.28 9.85999C768.103 13.4652 767.571 17.25 767.71 21.04C767.71 24.82 769.39 30.71 773.44 32.04C773.65 32.11 773.86 32.16 774.08 32.21C771.802 35.7482 770.438 39.7962 770.11 43.9913C769.782 48.1864 770.5 52.3973 772.2 56.2467C773.899 60.096 776.528 63.4634 779.849 66.047C783.17 68.6306 787.081 70.3496 791.23 71.05C791.297 71.51 791.36 71.9933 791.42 72.5H791.58C791.69 73.5 791.78 74.6 791.84 75.72C790.818 76.7214 789.699 77.6191 788.5 78.4C785.1 80.4098 781.308 81.6649 777.38 82.08C772.69 82.448 768.132 83.8116 764.01 86.08C759.16 88.79 753.81 92.74 752.13 97.54C749.33 105.54 733.91 117.99 723.57 119.54L719.89 119.33L719.62 119.25V119.32L718.72 119.27H718.67H718.43V119.32L717.5 119.27C717.5 119.27 717.41 119.7 717.28 120.46C712.08 118.67 701.03 113.71 686.65 100.66C670.65 86.13 649 88.99 640.65 90.82C640.366 90.8827 640.108 91.0305 639.91 91.2437C639.712 91.457 639.584 91.7255 639.543 92.0134C639.501 92.3014 639.549 92.5951 639.679 92.8553C639.809 93.1156 640.015 93.33 640.27 93.47C643.64 95.32 648.86 98.01 651.27 98.31C651.27 98.31 646.27 103.54 651.59 106.31C652.228 106.619 652.939 106.745 653.645 106.677C654.35 106.608 655.023 106.346 655.59 105.92C658.17 104.03 665.34 108.31 675.73 110.54C675.73 110.54 705.05 140.88 719.61 145.54C719.945 146.203 720.316 146.847 720.72 147.47L721.62 147.4V147.47H722L722.11 148.47C722.11 148.47 744.75 147.28 752.11 139.06C752.631 138.593 753.11 138.081 753.54 137.53L745.67 236.53H745.74L745.67 237.47H751.46C751.955 249.646 751.43 261.842 749.89 273.93V338.47C749.89 338.47 749.59 344.15 761.39 352.47C773.762 361.083 785.684 370.326 797.11 380.16L798.54 381.4C796.37 401.15 791.83 437.96 788.04 439.33L790.38 439.74C786.38 444.81 775.02 458.74 771.56 459.11C767.32 459.58 764.49 466.18 771.56 467.59C785.677 470.034 800.192 468.603 813.56 463.45C814.893 462.924 816.012 461.966 816.737 460.73C817.462 459.494 817.752 458.05 817.56 456.63L816.19 446.23C816.449 446.374 816.659 446.594 816.79 446.86C817.73 449.69 816.79 443.09 816.79 443.09C820.664 430.639 823.707 417.944 825.9 405.09L839.9 417.19C839.9 417.19 840.18 416.84 840.67 416.19C844.1 423.97 850.22 439.89 848.85 451.55C846.97 467.55 864.85 453.43 862.98 444.01C861.46 436.39 868.26 404.09 870.91 392.01C871.196 390.706 870.985 389.342 870.319 388.185C869.654 387.027 868.581 386.159 867.31 385.75V385.75Z" fill="url(#paint0_linear)"/>
<path d="M721 124.42C721 124.42 707.66 122.12 687.88 104.18C672.23 89.99 651.12 92.78 642.98 94.57C642.703 94.6299 642.45 94.7733 642.257 94.981C642.063 95.1886 641.938 95.4504 641.898 95.7313C641.857 96.0122 641.904 96.2987 642.031 96.5523C642.159 96.8059 642.361 97.0145 642.61 97.15C645.9 98.95 651 101.58 653.39 101.88C653.39 101.88 648.46 106.98 653.7 109.71C654.327 110.018 655.028 110.146 655.724 110.079C656.42 110.012 657.083 109.752 657.64 109.33C660.16 107.49 667.16 111.67 677.31 113.84C677.31 113.84 716.87 154.78 726.07 147.84L721 124.42Z" fill="#FEC3BE"/>
<path d="M789.11 68.76C789.11 68.76 792.79 84.4 789.11 95.44L805.67 97.74L820.39 90.38V80.72C820.39 80.72 813.49 66 815.33 48.98L789.11 68.76Z" fill="#FEC3BE"/>
<path d="M836 407.76C836 407.76 848 431.22 846.12 446.86C844.24 462.5 861.76 448.7 859.92 439.5C858.43 432.06 865.07 400.5 867.66 388.76C867.941 387.491 867.74 386.164 867.097 385.035C866.454 383.906 865.414 383.056 864.18 382.65C858.65 380.83 849.39 378.6 844.74 382.01C837.87 387.06 836 407.76 836 407.76Z" fill="#8B416F"/>
<path d="M790.49 433.52C790.49 433.52 774.85 453.76 770.71 454.22C766.57 454.68 763.81 461.12 770.71 462.5C784.487 464.898 798.656 463.515 811.71 458.5C813.016 457.99 814.114 457.057 814.826 455.849C815.539 454.642 815.825 453.23 815.64 451.84L813 432.14L790.49 433.52Z" fill="#8B416F"/>
<path d="M764.73 218.71L749.73 220.71C751.789 238.23 751.728 255.934 749.55 273.44V336.44C749.55 336.44 749.26 341.99 760.78 350.06C772.86 358.458 784.502 367.47 795.66 377.06L837.4 413.22C837.4 413.22 853.96 392.98 851.66 381.02C851.66 381.02 824.06 372.28 820.38 358.02C818.27 349.86 807.57 343.02 798.81 338.72C793.303 336.046 788.877 331.568 786.267 326.031C783.656 320.493 783.019 314.23 784.46 308.28C784.972 306.212 785.762 304.224 786.81 302.37C794.17 289.49 804.75 260.51 804.75 260.51L784.51 221.93L764.73 218.71Z" fill="#4D4981"/>
<path opacity="0.05" d="M764.73 218.71L749.73 220.71C751.789 238.23 751.728 255.934 749.55 273.44V336.44C749.55 336.44 749.26 341.99 760.78 350.06C772.86 358.458 784.502 367.47 795.66 377.06L837.4 413.22C837.4 413.22 853.96 392.98 851.66 381.02C851.66 381.02 824.06 372.28 820.38 358.02C818.27 349.86 807.57 343.02 798.81 338.72C793.303 336.046 788.877 331.568 786.267 326.031C783.656 320.493 783.019 314.23 784.46 308.28C784.972 306.212 785.762 304.224 786.81 302.37C794.17 289.49 804.75 260.51 804.75 260.51L784.51 221.93L764.73 218.71Z" fill="black"/>
<path d="M786.81 434.93C786.81 434.93 813.95 439.53 814.87 442.29C815.79 445.05 814.87 438.61 814.87 438.61C814.87 438.61 830.51 391.23 826.87 349.38C823.23 307.53 831.47 279.92 831.47 279.92C831.47 279.92 841.13 248.64 835.61 230.7C830.09 212.76 772.13 220.58 772.13 220.58C772.13 220.58 792.37 267.96 791.91 290.5C791.91 290.5 794.21 358.58 798.35 366.4C798.31 366.36 791.87 433.06 786.81 434.93Z" fill="#4D4981"/>
<path d="M790 80.72C790 80.72 792.76 97.72 820.36 90.38L802 230.21C802 230.21 748.64 232.05 749.1 225.61L760.1 140.98L790 80.72Z" fill="white"/>
<path opacity="0.1" d="M790.72 79.8C787.126 83.3383 782.444 85.5614 777.43 86.11C772.85 86.461 768.398 87.7837 764.37 89.99C759.64 92.64 754.37 96.49 752.77 101.18C749.55 110.38 729.31 125.56 720.11 122.34L723.33 149.94C723.33 149.94 749.55 148.56 754.15 138.44L746.34 236.93H753.24C753.24 236.93 756.92 210.25 759.68 204.73C762.44 199.21 767.96 168.85 768.42 161.49C768.88 154.13 775.78 111.81 781.76 104.49L790.76 82.64L790.72 79.8Z" fill="black"/>
<path opacity="0.1" d="M790.72 81.18C786.609 84.3956 781.693 86.4194 776.51 87.03C771.932 87.3885 767.484 88.718 763.46 90.93C758.73 93.58 753.46 97.43 751.86 102.12C748.64 111.32 728.4 126.5 719.2 123.28L722.42 150.88C722.42 150.88 748.64 149.5 753.24 139.38L745.42 237.81H752.32C752.32 237.81 756 211.13 758.76 205.61C761.52 200.09 767.04 169.73 767.5 162.37C767.96 155.01 774.86 112.69 780.84 105.37L790.72 83.93V81.18Z" fill="black"/>
<path d="M790.72 80.26C786.609 83.4757 781.693 85.4994 776.51 86.11C771.93 86.461 767.478 87.7837 763.45 89.99C758.72 92.64 753.45 96.49 751.85 101.18C748.63 110.38 728.39 125.56 719.19 122.34L722.41 149.94C722.41 149.94 748.63 148.56 753.23 138.44L745.42 236.93H752.32C752.32 236.93 756 210.25 758.76 204.73C761.52 199.21 767.04 168.85 767.5 161.49C767.96 154.13 774.86 111.81 780.84 104.49L790.73 83.1L790.72 80.26Z" fill="#FD6F8D"/>
<path opacity="0.1" d="M814.18 62.55C813.58 58.19 814.78 55.47 815.33 50.36L789.11 70.14C789.11 70.14 789.74 72.81 790.22 76.72C791.543 76.9337 792.88 77.0407 794.22 77.04C803.32 77.04 809.87 69.93 814.18 62.55Z" fill="black"/>
<path d="M794.17 75.67C807.889 75.67 819.01 64.5487 819.01 50.83C819.01 37.1112 807.889 25.99 794.17 25.99C780.451 25.99 769.33 37.1112 769.33 50.83C769.33 64.5487 780.451 75.67 794.17 75.67Z" fill="#FEC3BE"/>
<path opacity="0.1" d="M767.06 26.48C766.901 22.291 767.581 18.1124 769.06 14.19C768.649 14.8071 768.475 15.5521 768.571 16.2874C768.666 17.0226 769.025 17.6984 769.58 18.19C770.381 13.9151 772.575 10.0259 775.82 7.12999C774.05 7.41999 773.14 9.60999 773.58 11.35C774.178 13.0495 775.242 14.5466 776.65 15.67C776.5 13.04 778.24 10.58 780.44 9.14C782.732 7.82335 785.236 6.91643 787.84 6.45999C786.947 6.7769 786.184 7.38041 785.671 8.17636C785.157 8.97231 784.921 9.91592 785 10.86C785.008 11.1807 785.141 11.4858 785.37 11.71C785.62 11.8699 785.914 11.9468 786.21 11.93C788.801 12.0299 791.396 11.9731 793.98 11.76C797.157 11.4024 800.353 11.2321 803.55 11.25C813.55 11.67 823.6 18.5 825.84 28.25C826.304 30.6157 826.549 33.0193 826.57 35.43L827.06 47.74C827.345 51.3313 827.197 54.9439 826.62 58.5C825.927 61.7829 824.519 64.8725 822.495 67.5483C820.47 70.2242 817.881 72.4203 814.91 73.98C811.3 68.75 810.98 62.03 809.73 55.8C809.533 54.3623 808.998 52.9916 808.17 51.8C807.742 51.2108 807.142 50.7691 806.452 50.5362C805.762 50.3033 805.017 50.2906 804.32 50.5C802.97 51.04 802.39 53.1 803.51 54.02C802.51 55.2 800.64 54.32 799.51 53.27C796.354 50.2764 794.182 46.3952 793.28 42.14C792.83 40 792.38 37.36 790.28 36.63C789.558 36.4315 788.803 36.3805 788.06 36.48C783.68 36.78 776.83 38.59 772.59 37.2C768.7 35.93 767.06 30.17 767.06 26.48Z" fill="black"/>
<path d="M767.52 26.02C767.361 21.831 768.041 17.6524 769.52 13.73C769.109 14.3471 768.935 15.0921 769.031 15.8274C769.126 16.5626 769.485 17.2385 770.04 17.73C770.841 13.4551 773.035 9.56587 776.28 6.67C774.51 6.96 773.6 9.15 774.04 10.89C774.638 12.5895 775.702 14.0866 777.11 15.21C776.96 12.58 778.7 10.12 780.9 8.67999C783.192 7.36335 785.696 6.45644 788.3 6C787.407 6.31691 786.645 6.92042 786.131 7.71637C785.617 8.51232 785.381 9.45593 785.46 10.4C785.468 10.7207 785.601 11.0258 785.83 11.25C786.08 11.4099 786.374 11.4868 786.67 11.47C789.261 11.5698 791.856 11.5131 794.44 11.3C797.617 10.9424 800.813 10.7721 804.01 10.79C814.01 11.21 824.06 18.04 826.3 27.79C826.764 30.1557 827.009 32.5593 827.03 34.97L827.52 47.28C827.805 50.8713 827.657 54.4839 827.08 58.04C826.387 61.3229 824.979 64.4125 822.955 67.0883C820.93 69.7642 818.341 71.9603 815.37 73.52C811.76 68.29 811.44 61.57 810.19 55.34C809.993 53.9023 809.458 52.5316 808.63 51.34C808.202 50.7508 807.602 50.3091 806.912 50.0762C806.222 49.8433 805.477 49.8306 804.78 50.04C803.43 50.58 802.85 52.64 803.97 53.56C802.97 54.74 801.1 53.86 799.97 52.81C796.814 49.8164 794.642 45.9352 793.74 41.68C793.29 39.54 792.84 36.9 790.74 36.17C790.018 35.9715 789.263 35.9204 788.52 36.02C784.14 36.32 777.29 38.13 773.05 36.74C769.16 35.46 767.52 29.71 767.52 26.02Z" fill="#784F69"/>
<path opacity="0.1" d="M718 122.35C718 122.35 714.32 139.35 721.22 149.95L725.13 149.63L723 122.63L718 122.35Z" fill="black"/>
<path d="M719 122.35C719 122.35 715.32 139.35 722.22 149.95L726.13 149.63L724 122.63L719 122.35Z" fill="#FD6F8D"/>
<path opacity="0.1" d="M817.86 75.93L847.53 101.46C847.53 101.46 865.01 119.4 857.65 148.38C857.65 148.38 854.43 190.7 850.75 192.54C850.75 192.54 837.87 218.3 836.95 242.68C836.95 242.68 819.7 207.95 811.88 229.11C804.06 250.27 785.88 253.26 785.88 253.26L796 128.1C796 128.1 821.54 83.71 817.86 75.93Z" fill="black"/>
<path d="M818.78 75.93L848.45 101.46C848.45 101.46 865.93 119.4 858.57 148.38C858.57 148.38 855.35 190.7 851.67 192.54C851.67 192.54 838.79 218.3 837.87 242.68C837.87 242.68 819.7 206.11 811.87 227.27C804.04 248.43 786.8 253.27 786.8 253.27L796.92 128.16C796.92 128.16 822.46 83.71 818.78 75.93Z" fill="#FD6F8D"/>
<path d="M832.35 183.76C832.35 183.76 839.71 178.7 851.67 192.5L822.23 245.86L812.34 230.93C812.34 230.93 833.27 189.74 832.35 183.76Z" fill="#FEC3BE"/>
<path opacity="0.1" d="M825.22 186.75C825.22 186.75 841.5 205.03 847.85 202.1L853.73 188.41L831.66 178.93L825.22 186.75Z" fill="black"/>
<path d="M825.22 185.83C825.22 185.83 841.5 204.11 847.85 201.18L853.73 187.49L831.66 178.01L825.22 185.83Z" fill="#FD6F8D"/>
<path opacity="0.1" d="M813.34 227.44C813.34 227.44 821.09 243.32 825.22 244.24L819.22 251.14L810.48 234.58L813.34 227.44Z" fill="black"/>
<path d="M812.88 227.93C812.88 227.93 820.63 243.81 824.76 244.73L818.76 251.63L810 235.04L812.88 227.93Z" fill="#4D4981"/>
<path opacity="0.1" d="M827.52 129.71C827.52 129.71 828.44 162.83 824.76 175.25Z" fill="black"/>
<path opacity="0.1" d="M753 136.15C753 136.15 758.52 134.31 758.52 129.71Z" fill="black"/>
<defs>
<linearGradient id="paint0_linear" x1="203978" y1="301729" x2="203978" y2="82053.8" gradientUnits="userSpaceOnUse">
<stop stop-color="#808080" stop-opacity="0.25"/>
<stop offset="0.54" stop-color="#808080" stop-opacity="0.12"/>
<stop offset="1" stop-color="#808080" stop-opacity="0.1"/>
</linearGradient>
</defs>
</svg>
