<?xml version="1.0"?>
<svg xmlns="http://www.w3.org/2000/svg" height="512px" viewBox="0 0 64 64" width="512px"><g><path d="m10 50h2v2h-2z" data-original="#000000" class="active-path" data-old_color="#000000" fill="#6C757D"/><path d="m14 50h2v2h-2z" data-original="#000000" class="active-path" data-old_color="#000000" fill="#6C757D"/><path d="m18 50h28v2h-28z" data-original="#000000" class="active-path" data-old_color="#000000" fill="#6C757D"/><path d="m48 50h2v2h-2z" data-original="#000000" class="active-path" data-old_color="#000000" fill="#6C757D"/><path d="m52 50h2v2h-2z" data-original="#000000" class="active-path" data-old_color="#000000" fill="#6C757D"/><path d="m15 46h2v2h-2z" data-original="#000000" class="active-path" data-old_color="#000000" fill="#6C757D"/><path d="m11 46h2v2h-2z" data-original="#000000" class="active-path" data-old_color="#000000" fill="#6C757D"/><path d="m19 46h2v2h-2z" data-original="#000000" class="active-path" data-old_color="#000000" fill="#6C757D"/><path d="m23 46h2v2h-2z" data-original="#000000" class="active-path" data-old_color="#000000" fill="#6C757D"/><path d="m27 46h2v2h-2z" data-original="#000000" class="active-path" data-old_color="#000000" fill="#6C757D"/><path d="m31 46h2v2h-2z" data-original="#000000" class="active-path" data-old_color="#000000" fill="#6C757D"/><path d="m35 46h2v2h-2z" data-original="#000000" class="active-path" data-old_color="#000000" fill="#6C757D"/><path d="m39 46h2v2h-2z" data-original="#000000" class="active-path" data-old_color="#000000" fill="#6C757D"/><path d="m43 46h2v2h-2z" data-original="#000000" class="active-path" data-old_color="#000000" fill="#6C757D"/><path d="m47 46h2v2h-2z" data-original="#000000" class="active-path" data-old_color="#000000" fill="#6C757D"/><path d="m51 46h2v2h-2z" data-original="#000000" class="active-path" data-old_color="#000000" fill="#6C757D"/><path d="m60 40a2 2 0 0 0 2-2v-34a2 2 0 0 0 -2-2h-24a2 2 0 0 0 -2 2v4h-23a3 3 0 0 0 -3 3v31.764l-5.895 11.789a1 1 0 0 0 -.105.447v5a2 2 0 0 0 2 2h56a2 2 0 0 0 2-2v-5a1 1 0 0 0 -.1-.447l-5.9-11.789v-2.764zm-24-36h3v2h2v-2h2v2h2v-2h2v2h2v-2h2v2h2v-2h2v2h2v-2h3v34h-24zm23.382 50h-54.764l5-10h44.764zm-30.382 2h6v1h-6zm-25 4v-4h23v1a2 2 0 0 0 2 2h6a2 2 0 0 0 2-2v-1h23v4zm50-18h-44v-31a1 1 0 0 1 1-1h23v28a2 2 0 0 0 2 2h18z" data-original="#000000" class="active-path" data-old_color="#000000" fill="#6C757D"/><path d="m40 18h10v2h-10z" data-original="#000000" class="active-path" data-old_color="#000000" fill="#6C757D"/><path d="m52 18h4v2h-4z" data-original="#000000" class="active-path" data-old_color="#000000" fill="#6C757D"/><path d="m40 22h10v2h-10z" data-original="#000000" class="active-path" data-old_color="#000000" fill="#6C757D"/><path d="m52 22h4v2h-4z" data-original="#000000" class="active-path" data-old_color="#000000" fill="#6C757D"/><path d="m40 26h10v2h-10z" data-original="#000000" class="active-path" data-old_color="#000000" fill="#6C757D"/><path d="m52 26h4v2h-4z" data-original="#000000" class="active-path" data-old_color="#000000" fill="#6C757D"/><path d="m40 30h10v2h-10z" data-original="#000000" class="active-path" data-old_color="#000000" fill="#6C757D"/><path d="m52 30h4v2h-4z" data-original="#000000" class="active-path" data-old_color="#000000" fill="#6C757D"/><path d="m40 34h10v2h-10z" data-original="#000000" class="active-path" data-old_color="#000000" fill="#6C757D"/><path d="m52 34h4v2h-4z" data-original="#000000" class="active-path" data-old_color="#000000" fill="#6C757D"/><path d="m46 12h10v2h-10z" data-original="#000000" class="active-path" data-old_color="#000000" fill="#6C757D"/><path d="m46 8h10v2h-10z" data-original="#000000" class="active-path" data-old_color="#000000" fill="#6C757D"/><path d="m21 23h2a1 1 0 0 1 1 1h2a3 3 0 0 0 -3-3v-2h-2v2a3 3 0 0 0 0 6h2a1 1 0 0 1 0 2h-2a1 1 0 0 1 -1-1h-2a3 3 0 0 0 3 3v2h2v-2a3 3 0 0 0 0-6h-2a1 1 0 0 1 0-2z" data-original="#000000" class="active-path" data-old_color="#000000" fill="#6C757D"/><path d="m28 25h2v2h-2z" data-original="#000000" class="active-path" data-old_color="#000000" fill="#6C757D"/><path d="m14 25h2v2h-2z" data-original="#000000" class="active-path" data-old_color="#000000" fill="#6C757D"/></g> </svg>
