<?xml version="1.0"?>
<svg xmlns="http://www.w3.org/2000/svg" id="Layer_5" enable-background="new 0 0 64 64" height="512px" viewBox="0 0 64 64" width="512px"><g><path d="m20 17c.552 0 1 .449 1 1h2c0-1.654-1.346-3-3-3v-2h-2v2h-3v3c0 1.654 1.346 3 3 3h2c.552 0 1 .449 1 1v1h-3c-.552 0-1-.449-1-1h-2c0 1.654 1.346 3 3 3v2h2v-2h3v-3c0-1.654-1.346-3-3-3h-2c-.552 0-1-.449-1-1v-1z" data-original="#000000" class="active-path" data-old_color="#000000" fill="#6C757D"/><path d="m19 47h2v2h-2z" data-original="#000000" class="active-path" data-old_color="#000000" fill="#6C757D"/><path d="m19 51h2v2h-2z" data-original="#000000" class="active-path" data-old_color="#000000" fill="#6C757D"/><path d="m45 15c-.731 0-1.407.211-1.997.555-.608-.357-1.296-.555-2.003-.555-2.206 0-4 1.794-4 4s1.794 4 4 4c.707 0 1.395-.198 2.003-.555.59.344 1.266.555 1.997.555 2.206 0 4-1.794 4-4s-1.794-4-4-4zm-6 4c0-1.103.897-2 2-2 .175 0 .346.032.514.079-.318.572-.514 1.221-.514 1.921s.196 1.349.514 1.921c-.168.047-.339.079-.514.079-1.103 0-2-.897-2-2zm6 2c-1.103 0-2-.897-2-2s.897-2 2-2 2 .897 2 2-.897 2-2 2z" data-original="#000000" class="active-path" data-old_color="#000000" fill="#6C757D"/><path d="m45 7h2v2h-2z" data-original="#000000" class="active-path" data-old_color="#000000" fill="#6C757D"/><path d="m53 25h2v2h-2z" data-original="#000000" class="active-path" data-old_color="#000000" fill="#6C757D"/><path d="m57 25h2v2h-2z" data-original="#000000" class="active-path" data-old_color="#000000" fill="#6C757D"/><path d="m31 29h2v2h-2z" data-original="#000000" class="active-path" data-old_color="#000000" fill="#6C757D"/><path d="m35 29h24v2h-24z" data-original="#000000" class="active-path" data-old_color="#000000" fill="#6C757D"/><path d="m35 33h24v2h-24z" data-original="#000000" class="active-path" data-old_color="#000000" fill="#6C757D"/><path d="m45 57h2v2h-2z" data-original="#000000" class="active-path" data-old_color="#000000" fill="#6C757D"/><path d="m41 57h2v2h-2z" data-original="#000000" class="active-path" data-old_color="#000000" fill="#6C757D"/><path d="m49 57h2v2h-2z" data-original="#000000" class="active-path" data-old_color="#000000" fill="#6C757D"/><path d="m53 21v-13c0-2.757-2.243-5-5-5h-20.382l1-2h-3.618c-1.25 0-1.882.842-2.301 1.399-.379.506-.49.601-.702.601-.211 0-.322-.095-.701-.6-.418-.558-1.051-1.4-2.301-1.4s-1.881.843-2.299 1.4c-.379.505-.489.6-.699.6s-.32-.095-.699-.6c-.417-.557-1.049-1.4-2.298-1.4h-3.618l4.473 8.945-3.334 5.335c-.996 1.592-1.521 3.424-1.521 5.301v.419c0 3.728 2.054 6.98 5.086 8.699-7.541 2.146-13.086 9.081-13.086 17.301v10h18v6h35.414l8.586-8.586v-33.414zm-24.687-4h2.687v4h-2v-.419c0-1.234-.249-2.442-.687-3.581zm.485 6h2.202c1.103 0 2-.897 2-2v-4c0-1.103-.897-2-2-2h-3.696l-1.25-2h24.946v9c0 1.654-1.346 3-3 3h-19.841c.279-.636.497-1.304.639-2zm19.202-18c1.302 0 2.402.839 2.816 2h-1.816v2h2v2h-26.196l-.659-1.055.473-.945h18.382v-2h-17.382l1-2zm-35-2c.209 0 .32.095.697.6.418.558 1.05 1.4 2.3 1.4s1.881-.843 2.299-1.4c.379-.505.489-.6.699-.6.211 0 .322.095.701.6.418.558 1.051 1.4 2.301 1.4 1.251 0 1.883-.842 2.302-1.4.379-.505.49-.6.701-.6h.382l-3 6h-6.764l-3-6zm-2 18v-.419c0-1.501.421-2.967 1.216-4.24l3.339-5.341h6.891l3.339 5.341c.794 1.273 1.215 2.739 1.215 4.24v.419c0 4.411-3.589 8-8 8s-8-3.589-8-8zm18 21v13h-12v-7.546c4.475-3.921 7.666-8.976 9.322-14.664 5.146 2.663 8.678 8.027 8.678 14.21v8h-4v-13zm-10-11c.94 0 1.856.098 2.752.254l-2.752 3.21-2.752-3.21c.896-.156 1.812-.254 2.752-.254zm-1.31 5.009-1.696 2.036c-1.049-1.918-1.88-3.952-2.474-6.057.184-.067.364-.141.551-.202zm1.31 1.554 1.92 2.305c-.59.912-1.226 1.795-1.918 2.638-.69-.843-1.33-1.725-1.921-2.64zm3.006.481-1.696-2.035 3.62-4.223c.185.06.363.133.545.2-.599 2.123-1.426 4.15-2.469 6.058zm-19.006 8.956c0-6.18 3.528-11.542 8.67-14.206 1.199 4.104 3.25 7.945 5.994 11.225-.636.673-1.293 1.328-1.997 1.944l-.667.583v8.454h-6v-13h-2v13h-4zm18 10h16v-10c0-8.22-5.545-15.155-13.086-17.301 1.2-.68 2.241-1.603 3.067-2.699h21.019c2.414 0 4.434-1.721 4.899-4h8.101v30h-7.355c2.043-1.651 3.355-4.174 3.355-7 0-1.606-.428-3.112-1.168-4.418l3.875-3.875-1.414-1.414-3.653 3.653c-1.647-1.805-4.01-2.946-6.64-2.946-4.963 0-9 4.037-9 9s4.037 9 9 9c1.849 0 3.569-.562 5-1.522v7.522h-32zm26-6.586 7.347-7.347c.415.894.653 1.885.653 2.933 0 3.859-3.141 7-7 7s-7-3.141-7-7 3.141-7 7-7c2.079 0 3.943.916 5.226 2.36l-6.226 6.226-2.293-2.293-1.414 1.414zm12.586 4.586-4.586 4.586v-4.586z" data-original="#000000" class="active-path" data-old_color="#000000" fill="#6C757D"/></g> </svg>
