<?xml version="1.0"?>
<svg xmlns="http://www.w3.org/2000/svg" id="Layer_5" enable-background="new 0 0 64 64" height="512px" viewBox="0 0 64 64" width="512px"><g><path d="m41 32c0-6.065-4.935-11-11-11s-11 4.935-11 11 4.935 11 11 11 11-4.935 11-11zm-20 0c0-4.963 4.038-9 9-9s9 4.037 9 9-4.038 9-9 9-9-4.037-9-9z" data-original="#000000" class="active-path" data-old_color="#000000" fill="#6C757D"/><path d="m31 39v-2h2v-3c0-1.654-1.346-3-3-3-.551 0-1-.448-1-1v-1h1c.551 0 1 .448 1 1h2c0-1.302-.839-2.402-2-2.816v-2.184h-2v2h-2v3c0 1.654 1.346 3 3 3 .551 0 1 .448 1 1v1h-1c-.551 0-1-.448-1-1h-2c0 1.302.839 2.402 2 2.816v2.184z" data-original="#000000" class="active-path" data-old_color="#000000" fill="#6C757D"/><path d="m35 31h2v2h-2z" data-original="#000000" class="active-path" data-old_color="#000000" fill="#6C757D"/><path d="m23 31h2v2h-2z" data-original="#000000" class="active-path" data-old_color="#000000" fill="#6C757D"/><path d="m12 23c6.065 0 11-4.935 11-11s-4.935-11-11-11-11 4.935-11 11 4.935 11 11 11zm0-20c4.962 0 9 4.037 9 9s-4.038 9-9 9-9-4.037-9-9 4.038-9 9-9z" data-original="#000000" class="active-path" data-old_color="#000000" fill="#6C757D"/><path d="m12 15c-.551 0-1-.448-1-1h-2c0 1.302.839 2.402 2 2.816v2.184h2v-2h2v-3c0-1.654-1.346-3-3-3-.551 0-1-.448-1-1v-1h1c.551 0 1 .448 1 1h2c0-1.302-.839-2.402-2-2.816v-2.184h-2v2h-2v3c0 1.654 1.346 3 3 3 .551 0 1 .448 1 1v1z" data-original="#000000" class="active-path" data-old_color="#000000" fill="#6C757D"/><path d="m17 11h2v2h-2z" data-original="#000000" class="active-path" data-old_color="#000000" fill="#6C757D"/><path d="m5 11h2v2h-2z" data-original="#000000" class="active-path" data-old_color="#000000" fill="#6C757D"/><path d="m41 57h8v2h-8z" data-original="#000000" class="active-path" data-old_color="#000000" fill="#6C757D"/><path d="m58 1h-26c-2.757 0-5 2.243-5 5v11.302c-6.838 1.394-12 7.454-12 14.698 0 3.008.898 5.806 2.429 8.157l-1.929 1.929-1.5-1.5-11.464 11.464c-.991.99-1.536 2.306-1.536 3.708 0 2.89 2.352 5.242 5.243 5.242 1.399 0 2.716-.545 3.707-1.535l11.464-11.465-1.5-1.5 1.929-1.929c1.548 1.008 3.287 1.746 5.157 2.127v11.302c0 2.757 2.243 5 5 5h26c2.757 0 5-2.243 5-5v-52c0-2.757-2.243-5-5-5zm-19 2h12v1c0 .552-.449 1-1 1h-10c-.551 0-1-.448-1-1zm-30.464 55.05c-.613.613-1.428.95-2.293.95-1.788 0-3.243-1.454-3.243-3.242 0-.867.337-1.681.95-2.293l10.05-10.051 4.586 4.586zm9.964-12.964-1.586-1.586 1.729-1.729c.489.567 1.019 1.097 1.586 1.586zm-1.5-13.086c0-7.168 5.832-13 13-13s13 5.832 13 13-5.832 13-13 13-13-5.832-13-13zm38 15v-14h-10.051c.022-.332.051-.662.051-1 0-7.244-5.162-13.304-12-14.698v-6.302h24v38h-24v-2.302c.687-.14 1.35-.342 2-.573v.875zm-17.549-2c3.671-2.112 6.375-5.723 7.246-10h8.303v10zm23.549 13c0 1.654-1.346 3-3 3h-26c-1.654 0-3-1.346-3-3v-3h32zm0-5h-32v-6.051c.332.022.662.051 1 .051s.668-.029 1-.051v2.051c0 1.103.897 2 2 2h24c1.103 0 2-.897 2-2v-38c0-1.103-.897-2-2-2h-24c-1.103 0-2 .897-2 2v6.051c-.332-.022-.662-.051-1-.051s-.668.029-1 .051v-11.051c0-1.654 1.346-3 3-3h5v1c0 1.654 1.346 3 3 3h10c1.654 0 3-1.346 3-3v-1h5c1.654 0 3 1.346 3 3z" data-original="#000000" class="active-path" data-old_color="#000000" fill="#6C757D"/><path d="m35 13h2v2h-2z" data-original="#000000" class="active-path" data-old_color="#000000" fill="#6C757D"/><path d="m39 13h2v2h-2z" data-original="#000000" class="active-path" data-old_color="#000000" fill="#6C757D"/><path d="m43 13h12v2h-12z" data-original="#000000" class="active-path" data-old_color="#000000" fill="#6C757D"/><path d="m43 17h12v2h-12z" data-original="#000000" class="active-path" data-old_color="#000000" fill="#6C757D"/><path d="m47 21h8v2h-8z" data-original="#000000" class="active-path" data-old_color="#000000" fill="#6C757D"/><path d="m47 25h8v2h-8z" data-original="#000000" class="active-path" data-old_color="#000000" fill="#6C757D"/><path d="m47 29h8v2h-8z" data-original="#000000" class="active-path" data-old_color="#000000" fill="#6C757D"/></g> </svg>
