<?xml version="1.0" encoding="iso-8859-1"?>
<!-- Generator: Adobe Illustrator 19.0.0, SVG Export Plug-In . SVG Version: 6.00 Build 0)  -->
<svg version="1.1" id="Capa_1" xmlns="http://www.w3.org/2000/svg" xmlns:xlink="http://www.w3.org/1999/xlink" x="0px" y="0px"
	 viewBox="0 0 480 480" style="enable-background:new 0 0 480 480;" xml:space="preserve">
<g>
	<g>
		<path d="M472.004,0c-0.001,0-0.003,0-0.004,0H272c-4.417-0.001-7.999,3.579-8,7.996c0,0.001,0,0.003,0,0.004v208
			c-0.001,4.417,3.579,7.999,7.996,8c0.001,0,0.003,0,0.004,0h200c4.417,0.001,7.999-3.579,8-7.996c0-0.001,0-0.003,0-0.004V8
			C480.001,3.583,476.421,0.001,472.004,0z M400,16h24v60c0,6.627-5.373,12-12,12c-6.627,0-12-5.373-12-12V16z M360,16h24v60
			c0,6.627-5.373,12-12,12c-6.627,0-12-5.373-12-12V16z M320,16h24v60c0,6.627-5.373,12-12,12c-6.627,0-12-5.373-12-12V16z M280,16
			h24v60c0,6.627-5.373,12-12,12c-6.627,0-12-5.373-12-12V16z M464,208H280v-56h184V208z M464,136H280v-34.809
			c10.763,5.27,23.697,2.983,32-5.658c10.709,11.046,28.344,11.319,39.39,0.61c0.207-0.2,0.41-0.404,0.61-0.61
			c10.709,11.046,28.344,11.319,39.39,0.61c0.207-0.2,0.41-0.404,0.61-0.61c10.709,11.046,28.344,11.319,39.39,0.61
			c0.207-0.2,0.41-0.404,0.61-0.61c8.303,8.641,21.237,10.928,32,5.658V136z M464,76c0,6.627-5.373,12-12,12
			c-6.627,0-12-5.373-12-12V16h24V76z"/>
	</g>
</g>
<g>
	<g>
		<path d="M246.947,52.033c-0.709-1.241-1.737-2.269-2.978-2.978l-56-32c-2.475-1.417-5.519-1.407-7.984,0.027
			c-2.467,1.43-3.986,4.066-3.984,6.918v24h-66.445C84.409,48.028,64.03,68.405,64,93.551V168h16V93.551
			C80.02,77.237,93.241,64.018,109.555,64H176v24c-0.001,4.418,3.58,7.999,7.998,8c1.393,0,2.762-0.363,3.971-1.055l56-32
			C247.805,60.754,249.138,55.869,246.947,52.033z M192,74.215v-36.43L223.875,56L192,74.215z"/>
	</g>
</g>
<g>
	<g>
		<path d="M448,264v128c-0.026,18.998-13.391,35.366-32,39.191V408c0.002-2.852-1.517-5.488-3.984-6.918
			c-2.466-1.434-5.509-1.445-7.984-0.027l-56,32c-3.836,2.191-5.169,7.077-2.978,10.912c0.709,1.241,1.737,2.269,2.978,2.978l56,32
			c3.836,2.191,8.723,0.858,10.915-2.979c0.69-1.208,1.053-2.575,1.053-3.967v-24.639c27.519-3.989,47.951-27.554,48-55.361V264H448
			z M400,458.215L368.125,440L400,421.785V458.215z"/>
	</g>
</g>
<g>
	<g>
		<path d="M340,396c0-22.805-30.953-40-72-40s-72,17.195-72,40c0.029,3.853,0.938,7.648,2.658,11.096
			C179.541,414.358,168,426.381,168,440c0,22.805,30.953,40,72,40s72-17.195,72-40c-0.022-3.779-0.897-7.504-2.559-10.898
			C328.159,422.028,340,410.092,340,396z M240,464c-32.055,0-56-12.672-56-24c0-7.412,10.515-15.283,25.93-19.839
			C227.161,431.369,247.465,436.907,268,436c8.553,0.018,17.088-0.799,25.482-2.44c1.52,1.814,2.404,4.076,2.518,6.44
			C296,451.328,272.055,464,240,464z M268,420c-32.055,0-56-12.672-56-24s23.945-24,56-24c32.055,0,56,12.672,56,24
			S300.055,420,268,420z"/>
	</g>
</g>
<g>
	<g>
		<path d="M72,232c-41.047,0-72,17.195-72,40v165c0,24.113,31.625,43,72,43c40.375,0,72-18.887,72-43V272
			C144,249.195,113.047,232,72,232z M128,437c0,12.77-23,27-56,27s-56-14.23-56-27v-12.693C32.601,435.189,52.162,440.671,72,440
			c19.839,0.671,39.399-4.811,56-15.693V437z M128,397c0,12.77-23,27-56,27s-56-14.23-56-27v-12.676
			C32.605,395.196,52.164,400.671,72,400c19.836,0.671,39.395-4.804,56-15.676V397z M128,357c0,12.77-23,27-56,27s-56-14.23-56-27
			v-12.693C32.601,355.189,52.162,360.671,72,360c19.839,0.671,39.399-4.811,56-15.693V357z M128,317c0,12.77-23,27-56,27
			s-56-14.23-56-27v-12.676C32.605,315.196,52.164,320.671,72,320c19.836,0.671,39.395-4.804,56-15.676V317z M128,277
			c0,12.77-23,27-56,27s-56-14.23-56-27v-5c0-11.328,23.945-24,56-24c32.055,0,56,12.672,56,24V277z"/>
	</g>
</g>
<g>
</g>
<g>
</g>
<g>
</g>
<g>
</g>
<g>
</g>
<g>
</g>
<g>
</g>
<g>
</g>
<g>
</g>
<g>
</g>
<g>
</g>
<g>
</g>
<g>
</g>
<g>
</g>
<g>
</g>
</svg>
