<?xml version="1.0"?>
<svg xmlns="http://www.w3.org/2000/svg" id="_x33_0" enable-background="new 0 0 64 64" height="512px" viewBox="0 0 64 64" width="512px"><g><path d="m45 30h2v2h2v-2h2c1.103 0 2-.897 2-2v-4c0-1.103-.897-2-2-2h-6v-4h6v2h2v-2c0-1.103-.897-2-2-2h-2v-2h-2v2h-2c-1.103 0-2 .897-2 2v4c0 1.103.897 2 2 2h6v4h-6v-2h-2v2c0 1.103.897 2 2 2z" data-original="#000000" class="active-path" data-old_color="#000000" fill="#6C757D"/><path d="m48 38c8.271 0 15-6.729 15-15s-6.729-15-15-15c-5.558 0-10.409 3.046-13 7.549v-14.167l-6.875 3.438-5.125-4.101-5 4-5-4-5.125 4.1-6.875-3.437v42.618c0 8.936 4.229 18.464 16 18.975v.025h32c4.963 0 9-4.038 9-9 0-3.309-2.691-6-6-6h-17v-17.549c2.591 4.503 7.442 7.549 13 7.549zm0-28c7.168 0 13 5.832 13 13s-5.832 13-13 13-13-5.832-13-13 5.832-13 13-13zm8 44c0 3.86-3.141 7-7 7h-25.356c2.044-1.651 3.356-4.174 3.356-7 0-1.538-.586-2.937-1.54-4h26.54c2.206 0 4 1.794 4 4zm-31.537-2h-3.463v2c0 1.103-.897 2-2 2h-.12c-1.036 0-1.88-.844-1.88-1.88v-.12c0-2.206 1.794-4 4-4 1.478 0 2.771.805 3.463 2zm-1.463 2h2c0 .695-.105 1.366-.295 2h-2.262c.345-.591.557-1.268.557-2zm10-6h-12c-3.309 0-6 2.691-6 6v.12c0 2.14 1.74 3.88 3.88 3.88h.12 4.736c-1.267 1.811-3.364 3-5.736 3-9.393 0-15-6.355-15-17v-39.382l5.125 2.562 4.875-3.899 5 4 5-4 4.875 3.9 5.125-2.563z" data-original="#000000" class="active-path" data-old_color="#000000" fill="#6C757D"/><path d="m26 12h-16c-1.654 0-3 1.346-3 3v16c0 1.654 1.346 3 3 3h16c1.654 0 3-1.346 3-3v-16c0-1.654-1.346-3-3-3zm-9 2h2v2h-2zm2 18h-2v-2h2zm8-1c0 .551-.448 1-1 1h-5v-4h-6v4h-5c-.552 0-1-.449-1-1v-16c0-.551.448-1 1-1h5v4h6v-4h5c.552 0 1 .449 1 1z" data-original="#000000" class="active-path" data-old_color="#000000" fill="#6C757D"/><path d="m25 36h4v2h-4z" data-original="#000000" class="active-path" data-old_color="#000000" fill="#6C757D"/><path d="m7 40h22v2h-22z" data-original="#000000" class="active-path" data-old_color="#000000" fill="#6C757D"/><path d="m7 44h4v2h-4z" data-original="#000000" class="active-path" data-old_color="#000000" fill="#6C757D"/><path d="m13 44h2v2h-2z" data-original="#000000" class="active-path" data-old_color="#000000" fill="#6C757D"/><path d="m17 44h2v2h-2z" data-original="#000000" class="active-path" data-old_color="#000000" fill="#6C757D"/><path d="m21 44h2v2h-2z" data-original="#000000" class="active-path" data-old_color="#000000" fill="#6C757D"/><path d="m19 36h4v2h-4z" data-original="#000000" class="active-path" data-old_color="#000000" fill="#6C757D"/></g> </svg>
