<svg id="icons" enable-background="new 0 0 64 64" height="512" viewBox="0 0 64 64" width="512" xmlns="http://www.w3.org/2000/svg"><path d="m.032 21.745c.006.024.023.041.031.064.022.067.054.126.09.186.032.055.063.107.104.154.04.046.086.081.133.118.056.044.109.085.172.116.049.023.099.037.151.054.073.022.145.04.222.045.023.001.042.013.065.013.043 0 .079-.02.121-.024.043-.006.085.004.129-.008l2.752-.711v28.743c0 .553.447 1 1 1h.001.001 33.004v2.014c0 .553.447 1 1 1h7.992.008 7.992 8c.553 0 1-.447 1-1v-8c0-.553-.447-1-1-1h-3.004v-6.98c0-.007.004-.013.004-.02v-15.756l2.75.71c.083.022.166.031.248.032h.002s.001 0 .001 0c.124 0 .243-.028.356-.072.039-.015.072-.038.108-.058.069-.037.134-.078.192-.13.035-.031.064-.064.095-.101.047-.055.086-.113.121-.179.023-.045.044-.089.061-.137.009-.026.026-.047.033-.074.011-.042.001-.082.007-.124s.026-.08.026-.125v-2.995c0-.025-.013-.047-.015-.072-.005-.069-.021-.133-.04-.198-.018-.061-.033-.12-.063-.176-.028-.057-.065-.104-.104-.154-.04-.052-.079-.102-.128-.145-.046-.04-.097-.069-.149-.101-.061-.036-.12-.068-.188-.091-.023-.008-.04-.025-.064-.031l-31-8.009c-.164-.043-.336-.043-.5 0l-31 8.009c-.024.006-.041.023-.064.031-.067.022-.127.055-.188.091-.053.031-.104.061-.149.101-.049.043-.088.093-.128.145-.038.05-.075.098-.104.154-.028.056-.044.114-.062.176-.02.065-.035.129-.04.198-.001.025-.014.047-.014.072v2.995c0 .045.02.083.025.126.006.042-.004.082.007.124zm15.966 9.75v18h-9.996v-28.26l25.998-6.715 26 6.717v15.272h-1.996v-7c0-.553-.447-1-1-1h-8c-.553 0-1 .447-1 1v.986h-29.006c-.553 0-1 .447-1 1zm35.006.015c.553 0 1-.447 1-1v-.001h2v6h-3-.008-2.992v-6h2v.001c0 .553.447 1 1 1zm-5 .985v1h-28.006v-1zm-26.004 17h-2.002v-1.999h2.002zm0-3.999h-2.002v-2.001h2.002zm0-4.001h-2.002v-2.001h2.002zm4 8h-2v-1.999h2zm0-3.999h-2v-2.001h2zm4 3.999h-2v-1.999h2zm10.008-3.986v3.986h-8.008v-2.999c0-.553-.447-1-1-1-.017 0-.03.009-.047.01-.017-.001-.03-.01-.047-.01h-2.906v-3.001c0-.553-.447-1-1-1h-3v-3.001c0-.553-.447-1-1-1h-3.002v-1.999h28.006v1.014h-3c-.553 0-1 .447-1 1v7h-2.996c-.553 0-1 .447-1 1zm7.992 7h-5.992v-6h1.992v.001c0 .553.447 1 1 1s1-.447 1-1v-.001h2zm1-8h-2.996v-6h2.004v.001c0 .553.447 1 1 1s1-.447 1-1v-.001h1.988v6h-2.988zm7 8h-5.992v-6h1.996v.001c0 .553.447 1 1 1s1-.447 1-1v-.001h1.996zm-1.996-8v-6h2v.001c0 .553.447 1 1 1s1-.447 1-1v-.001h1.992v6h-2.996zm7.996 2.001 2-.001v6h-6v-6h2v.001c0 .553.447 1 1 1s1-.447 1-1zm-58-27.236 30-7.75 30 7.75v.93l-29.75-7.686c-.164-.043-.336-.043-.5 0l-29.75 7.686z"/><path d="m42 20.496h-20c-.553 0-1 .447-1 1v4.001c0 .553.447 1 1 1h20c.553 0 1-.447 1-1v-4.001c0-.553-.447-1-1-1zm-11 4.001h-8v-2.001h8zm10 0h-8v-2.001h8z"/></svg>