<?xml version="1.0"?>
<svg xmlns="http://www.w3.org/2000/svg" viewBox="0 0 64 64" width="512" height="512"><g id="qc_warehouse" data-name="qc warehouse"><path d="M61.527,20.15l-29-18a1,1,0,0,0-1.054,0l-29,18A1,1,0,0,0,2,21V61a1,1,0,0,0,1,1H61a1,1,0,0,0,1-1V21A1,1,0,0,0,61.527,20.15ZM8,26V24H56v2Zm46,2V60H48.644A12.962,12.962,0,0,0,36,50h-.413a7.005,7.005,0,0,0,3.333-5H40a2,2,0,0,0,2-2V42a2,2,0,0,0-1.624-1.962l1.331-1.331A1,1,0,0,0,42,38V37a7.009,7.009,0,0,0-7-7H29a7.009,7.009,0,0,0-7,7v1a1,1,0,0,0,.293.707l1.331,1.331A2,2,0,0,0,22,42v1a2,2,0,0,0,2,2h1.08a7.005,7.005,0,0,0,3.333,5H28A12.939,12.939,0,0,0,15.362,60H10V28ZM25,43H24V42h1Zm.553-5.9A1,1,0,0,0,25,38v.586l-1-1V37a5.006,5.006,0,0,1,5-5h6a5.006,5.006,0,0,1,5,5v.586l-1,1V38a1,1,0,0,0-.758-.97l-8-2a.991.991,0,0,0-.689.075ZM39,42h1v1H39ZM27,38.618l3.116-1.558L37,38.781V44a5,5,0,0,1-10,0ZM34.772,52l-.828,4H30.056l-.828-4Zm-7.579.036L28.262,57.2a1,1,0,0,0,.979.8h5.518a1,1,0,0,0,.979-.8l1.068-5.163A10.927,10.927,0,0,1,46.577,60H17.423A10.938,10.938,0,0,1,27.193,52.036ZM60,60H56V28h1a1,1,0,0,0,1-1V23a1,1,0,0,0-1-1H7a1,1,0,0,0-1,1v4a1,1,0,0,0,1,1H8V60H4V21.557L32,4.177l28,17.38Z"/><path d="M24,13v4a1,1,0,0,0,1,1H39a1,1,0,0,0,1-1V13a1,1,0,0,0-1-1H25A1,1,0,0,0,24,13Zm2,1H38v2H26Z"/><rect x="29" y="8" width="6" height="2"/><path d="M47,37l.056,0a1,1,0,0,0,.725-.373l4-5-1.562-1.25-3.3,4.128-1.21-1.21-1.414,1.414,2,2A.993.993,0,0,0,47,37Z"/><polygon points="12.293 36.293 13.707 37.707 16 35.414 18.293 37.707 19.707 36.293 17.414 34 19.707 31.707 18.293 30.293 16 32.586 13.707 30.293 12.293 31.707 14.586 34 12.293 36.293"/></g></svg>
