<svg height="496pt" viewBox="0 0 496 496" width="496pt" xmlns="http://www.w3.org/2000/svg"><path d="m464 80h-80v-80h-384v432c0 35.289062 28.710938 64 64 64h368c35.289062 0 64-28.710938 64-64v-320c0-17.648438-14.351562-32-32-32zm-27.550781 16c-2.753907 4.726562-4.449219 10.144531-4.449219 16v232h-48v-248zm-372.449219 384c-26.472656 0-48-21.527344-48-48v-416h352v416c0 19.097656 8.40625 36.265625 21.710938 48zm416-48c0 26.472656-21.527344 48-48 48s-48-21.527344-48-48v-72h64v-248c0-8.824219 7.175781-16 16-16s16 7.175781 16 16zm0 0"/><path d="m88 48h16v144h48v-80h16v80h48v-120h16v120h48v-56h16v56h40v-16h-24v-56h-48v56h-16v-120h-48v120h-16v-80h-48v80h-16v-144h-48v144h-24v16h40zm0 0"/><path d="m40 256h72v16h-72zm0 0"/><path d="m128 256h72v16h-72zm0 0"/><path d="m40 384h72v16h-72zm0 0"/><path d="m128 384h72v16h-72zm0 0"/><path d="m40 288h72v16h-72zm0 0"/><path d="m128 288h72v16h-72zm0 0"/><path d="m40 224h160v16h-160zm0 0"/><path d="m40 320h160v16h-160zm0 0"/><path d="m216 256h56v16h-56zm0 0"/><path d="m288 256h56v16h-56zm0 0"/><path d="m216 224h128v16h-128zm0 0"/><path d="m216 288h128v16h-128zm0 0"/><path d="m40 352h160v16h-160zm0 0"/><path d="m40 416h160v16h-160zm0 0"/><path d="m292 344h-4v-16h-16v16h-4c-15.441406 0-28 12.558594-28 28s12.558594 28 28 28h24c6.617188 0 12 5.382812 12 12s-5.382812 12-12 12h-24c-6.617188 0-12-5.382812-12-12v-4h-16v4c0 15.441406 12.558594 28 28 28h4v16h16v-16h4c15.441406 0 28-12.558594 28-28s-12.558594-28-28-28h-24c-6.617188 0-12-5.382812-12-12s5.382812-12 12-12h24c6.617188 0 12 5.382812 12 12v4h16v-4c0-15.441406-12.558594-28-28-28zm0 0"/></svg>