<svg id="Layer_5" enable-background="new 0 0 64 64" height="512" viewBox="0 0 64 64" width="512" xmlns="http://www.w3.org/2000/svg"><path d="m15 7v-2h-2v2h-2v14h2v2h2v-2c2.206 0 4-1.794 4-4 0-1.193-.525-2.267-1.357-3 .832-.733 1.357-1.807 1.357-3 0-2.206-1.794-4-4-4zm0 12h-2v-4h2c1.103 0 2 .897 2 2s-.897 2-2 2zm0-6h-2v-4h2c1.103 0 2 .897 2 2s-.897 2-2 2z"/><path d="m13 35h14v2h-14z"/><path d="m13 39h14v2h-14z"/><path d="m5 51h22v-8h-22zm2-6h18v4h-18z"/><path d="m5 53h22v2h-22z"/><path d="m5 57h14v2h-14z"/><path d="m21 57h2v2h-2z"/><path d="m25 57h2v2h-2z"/><path d="m43 13h2v2h-2z"/><path d="m51 13h2v2h-2z"/><path d="m47 13h2v2h-2z"/><path d="m60 28h-11v-7.434l10.943-6.566-11.943-7.166-10.277 6.166h-10.774c-.514-6.701-6.119-12-12.949-12-7.168 0-13 5.832-13 13s5.832 13 13 13c6.83 0 12.435-5.299 12.949-12h10.774l9.277 5.566v7.434h-11c-1.654 0-3 1.346-3 3v8c0 1.654 1.346 3 3 3h11v4h-16v-15h-21.414l-8.586 8.586v23.414h30v-15h18v-6h11c1.654 0 3-1.346 3-3v-8c0-1.654-1.346-3-3-3zm-46-3c-6.065 0-11-4.935-11-11s4.935-11 11-11 11 4.935 11 11-4.935 11-11 11zm34-15.834 8.057 4.834-8.057 4.834-8.057-4.834zm-39 25.248v4.586h-4.586zm20 26.586h-26v-20h8v-8h18zm32-22c0 .552-.448 1-1 1h-24c-.552 0-1-.448-1-1v-8c0-.552.448-1 1-1h24c.552 0 1 .448 1 1z"/><path d="m40 32c-1.654 0-3 1.346-3 3s1.346 3 3 3 3-1.346 3-3-1.346-3-3-3zm0 4c-.552 0-1-.448-1-1s.448-1 1-1 1 .448 1 1-.448 1-1 1z"/><path d="m48 32c-1.654 0-3 1.346-3 3s1.346 3 3 3 3-1.346 3-3-1.346-3-3-3zm0 4c-.552 0-1-.448-1-1s.448-1 1-1 1 .448 1 1-.448 1-1 1z"/><path d="m56 32c-1.654 0-3 1.346-3 3s1.346 3 3 3 3-1.346 3-3-1.346-3-3-3zm0 4c-.552 0-1-.448-1-1s.448-1 1-1 1 .448 1 1-.448 1-1 1z"/></svg>