<?xml version="1.0" encoding="iso-8859-1"?>
<!-- Generator: Adobe Illustrator 22.1.0, SVG Export Plug-In . SVG Version: 6.00 Build 0)  -->
<svg xmlns="http://www.w3.org/2000/svg" xmlns:xlink="http://www.w3.org/1999/xlink" version="1.1" id="Layer_3" x="0px" y="0px" viewBox="0 0 64 64" style="enable-background:new 0 0 64 64;" xml:space="preserve" width="512" height="512">
<g>
	<path d="M60,27H47.189C45.083,20.621,39.075,16,32,16c-2.479,0-4.857,0.564-7,1.606V4c0-1.654-1.346-3-3-3H4C2.346,1,1,2.346,1,4   v30c0,1.654,1.346,3,3,3h12.811C18.917,43.379,24.925,48,32,48c2.479,0,4.857-0.564,7-1.606V60c0,1.654,1.346,3,3,3h18   c1.654,0,3-1.346,3-3V30C63,28.346,61.654,27,60,27z M61,60c0,0.552-0.448,1-1,1H42c-0.552,0-1-0.448-1-1V45.226   c0.708-0.484,1.371-1.036,2-1.635V47h2v-6c0-0.553-0.447-1-1-1h-6v2h3.775c-2.599,2.554-6.055,4-9.775,4c-7.72,0-14-6.28-14-14   c0-1.947,0.392-3.832,1.164-5.6L17.332,25.6c-0.201,0.46-0.372,0.928-0.528,1.4H7V7h12v8h2V6c0-0.553-0.447-1-1-1H6   C5.447,5,5,5.447,5,6v22c0,0.553,0.447,1,1,1h10.292C16.106,29.982,16,30.982,16,32c0,1.026,0.106,2.027,0.292,3H4   c-0.552,0-1-0.448-1-1V4c0-0.552,0.448-1,1-1h18c0.552,0,1,0.448,1,1v14.774c-0.708,0.484-1.371,1.036-2,1.635V17h-2v6   c0,0.553,0.447,1,1,1h6v-2h-3.775c2.599-2.554,6.055-4,9.775-4c7.72,0,14,6.28,14,14c0,1.961-0.397,3.857-1.181,5.637l1.83,0.807   c0.762-1.73,1.184-3.559,1.3-5.443H57v20H45v-4h-2v5c0,0.553,0.447,1,1,1h14c0.553,0,1-0.447,1-1V32c0-0.553-0.447-1-1-1H47.949   c-0.042-0.678-0.117-1.347-0.241-2H60c0.552,0,1,0.448,1,1V60z"/>
	<rect x="50" y="57" width="2" height="2"/>
	<path d="M22,32h-2c0,6.617,5.383,12,12,12v-2C26.486,42,22,37.514,22,32z"/>
	<path d="M32,20v2c5.514,0,10,4.486,10,10h2C44,25.383,38.617,20,32,20z"/>
	<path d="M39,29c0-2.206-1.794-4-4-4v-2h-2v2h-1v-2h-2v2h-4v2h2v4v2v4h-2v2h4v2h2v-2h1v2h2v-2c2.206,0,4-1.794,4-4   c0-1.201-0.542-2.266-1.382-3C38.458,31.266,39,30.201,39,29z M37,35c0,1.103-0.897,2-2,2h-5v-4h5C36.103,33,37,33.897,37,35z    M30,31v-4h5c1.103,0,2,0.897,2,2s-0.897,2-2,2H30z"/>
	<rect x="11" y="31" width="2" height="2"/>
	<path d="M41,14c0,0.375,0.209,0.718,0.542,0.89C41.687,14.964,41.844,15,42,15c0.205,0,0.408-0.062,0.581-0.187l7-5   C49.844,9.626,50,9.323,50,9s-0.156-0.626-0.419-0.813l-7-5c-0.305-0.219-0.706-0.246-1.039-0.076C41.209,3.282,41,3.625,41,4v2h-6   v2h7c0.553,0,1-0.447,1-1V5.943L47.279,9L43,12.057V11c0-0.553-0.447-1-1-1h-7v2h6V14z"/>
	<rect x="31" y="6" width="2" height="2"/>
	<rect x="27" y="6" width="2" height="2"/>
	<rect x="31" y="10" width="2" height="2"/>
	<rect x="27" y="10" width="2" height="2"/>
	<path d="M23,50c0-0.375-0.209-0.718-0.542-0.89c-0.335-0.173-0.735-0.144-1.039,0.076l-7,5C14.156,54.374,14,54.677,14,55   s0.156,0.626,0.419,0.813l7,5C21.592,60.938,21.795,61,22,61c0.156,0,0.313-0.037,0.458-0.11C22.791,60.718,23,60.375,23,60v-2h6   v-2h-7c-0.553,0-1,0.447-1,1v1.057L16.721,55L21,51.943V53c0,0.553,0.447,1,1,1h7v-2h-6V50z"/>
	<rect x="31" y="56" width="2" height="2"/>
	<rect x="35" y="56" width="2" height="2"/>
	<rect x="31" y="52" width="2" height="2"/>
	<rect x="35" y="52" width="2" height="2"/>
</g>
</svg>
