<svg id="Layer_5" enable-background="new 0 0 64 64" height="512" viewBox="0 0 64 64" width="512" xmlns="http://www.w3.org/2000/svg"><path d="m20 17.184v-2.184h-2v2h-2v10h2v2h2v-2.184c1.161-.414 2-1.514 2-2.816 0-.768-.29-1.469-.766-2 .476-.531.766-1.232.766-2 0-1.302-.839-2.402-2-2.816zm-1 7.816h-1v-2h1c.552 0 1 .448 1 1s-.448 1-1 1zm0-4h-1v-2h1c.552 0 1 .448 1 1s-.448 1-1 1z"/><path d="m52 39.051v-1.051c0-1.654-1.346-3-3-3h-11c-.552 0-1-.448-1-1v-8c0-1.654-1.346-3-3-3h-4.051c.03-.33.051-.662.051-1s-.021-.67-.051-1h4.051c1.654 0 3-1.346 3-3v-3c0-.552.448-1 1-1h1.051c.511 6.15 5.669 11 11.949 11 6.617 0 12-5.383 12-12s-5.383-12-12-12c-6.28 0-11.438 4.85-11.949 11h-1.051c-1.654 0-3 1.346-3 3v3c0 .552-.448 1-1 1h-4.426c-1.31-4.61-5.549-8-10.574-8-6.065 0-11 4.935-11 11 0 4.23 2.403 7.904 5.913 9.744-7.454 2.201-12.913 9.099-12.913 17.256v4h36v-4c0-8.157-5.459-15.055-12.913-17.256 2.646-1.387 4.655-3.818 5.487-6.744h4.426c.552 0 1 .448 1 1v8c0 1.654 1.346 3 3 3h11c.552 0 1 .448 1 1v1.051c-6.15.511-11 5.669-11 11.949 0 6.617 5.383 12 12 12s12-5.383 12-12c0-6.28-4.85-11.438-11-11.949zm-7.785-18.726c.76-3.114 3.533-5.325 6.785-5.325s6.025 2.211 6.785 5.325c-1.785 1.654-4.165 2.675-6.785 2.675s-5-1.021-6.785-2.675zm3.785-10.325c0-1.654 1.346-3 3-3s3 1.346 3 3-1.346 3-3 3-3-1.346-3-3zm3-7c5.514 0 10 4.486 10 10 0 2.057-.626 3.97-1.695 5.562-.923-2.249-2.708-4.005-4.925-4.901.989-.914 1.62-2.211 1.62-3.661 0-2.757-2.243-5-5-5s-5 2.243-5 5c0 1.45.631 2.747 1.62 3.661-2.218.896-4.002 2.651-4.925 4.901-1.069-1.592-1.695-3.505-1.695-5.562 0-5.514 4.486-10 10-10zm-31.56 30.022 1.054 9.486c-.469.685-.963 1.353-1.492 1.996-.526-.643-1.03-1.302-1.498-1.987l1.055-9.496c.148-.003.292-.021.441-.021s.293.018.44.022zm2.756 6.682-.721-6.493c1.037.162 2.039.422 3 .774-.564 1.997-1.323 3.912-2.279 5.719zm-8.676-5.717c.963-.353 1.967-.614 3.006-.776l-.722 6.497c-.964-1.817-1.725-3.739-2.284-5.721zm-10.52 15.013c0-6.18 3.528-11.541 8.669-14.206 1.2 4.104 3.25 7.944 5.994 11.225-.636.673-1.293 1.328-1.997 1.944l-.666.583v2.454h-6v-5.586c0-1.179-.459-2.287-1.293-3.121l-1.414 1.414c.456.456.707 1.063.707 1.707v5.586h-4zm32 0v2h-4v-5.586c0-.645.251-1.251.707-1.707l-1.414-1.414c-.834.834-1.293 1.942-1.293 3.121v5.586h-12v-1.546c4.475-3.921 7.666-8.976 9.322-14.664 5.146 2.663 8.678 8.027 8.678 14.21zm-16-18c-4.963 0-9-4.037-9-9s4.037-9 9-9 9 4.037 9 9-4.037 9-9 9zm25.215 27.325c.76-3.114 3.533-5.325 6.785-5.325s6.025 2.211 6.785 5.325c-1.785 1.654-4.165 2.675-6.785 2.675s-5-1.021-6.785-2.675zm3.785-10.325c0-1.654 1.346-3 3-3s3 1.346 3 3-1.346 3-3 3-3-1.346-3-3zm11.305 8.562c-.923-2.249-2.708-4.005-4.925-4.901.989-.914 1.62-2.211 1.62-3.661 0-2.757-2.243-5-5-5s-5 2.243-5 5c0 1.45.631 2.747 1.62 3.661-2.218.896-4.002 2.651-4.925 4.901-1.069-1.592-1.695-3.505-1.695-5.562 0-5.514 4.486-10 10-10s10 4.486 10 10c0 2.057-.626 3.97-1.695 5.562z"/></svg>